<svg width="24" height="707" viewBox="0 0 24 707" fill="none" xmlns="http://www.w3.org/2000/svg">
<path d="M12 404V694" stroke="#8AE7C1" stroke-width="2"/>
<path d="M12 416C18.6274 416 24 410.627 24 404C24 397.373 18.6274 392 12 392C5.37258 392 0 397.373 0 404C0 410.627 5.37258 416 12 416Z" fill="#D0F5E6"/>
<path d="M12 411C15.866 411 19 407.866 19 404C19 400.134 15.866 397 12 397C8.13401 397 5 400.134 5 404C5 407.866 8.13401 411 12 411Z" fill="#8AE7C1"/>
<path d="M12 548C18.6274 548 24 542.627 24 536C24 529.373 18.6274 524 12 524C5.37258 524 0 529.373 0 536C0 542.627 5.37258 548 12 548Z" fill="#D0F5E6"/>
<path d="M12 543C15.866 543 19 539.866 19 536C19 532.134 15.866 529 12 529C8.13401 529 5 532.134 5 536C5 539.866 8.13401 543 12 543Z" fill="#8AE7C1"/>
<path d="M12 707C18.6274 707 24 701.627 24 695C24 688.373 18.6274 683 12 683C5.37258 683 0 688.373 0 695C0 701.627 5.37258 707 12 707Z" fill="#D0F5E6"/>
<path d="M12 702C15.866 702 19 698.866 19 695C19 691.134 15.866 688 12 688C8.13401 688 5 691.134 5 695C5 698.866 8.13401 702 12 702Z" fill="#8AE7C1"/>
<path d="M12 9V392" stroke="#8AE7C1" stroke-width="2"/>
<path d="M12 24C18.6274 24 24 18.6274 24 12C24 5.37258 18.6274 0 12 0C5.37258 0 0 5.37258 0 12C0 18.6274 5.37258 24 12 24Z" fill="#D0F5E6"/>
<path d="M12 19C15.866 19 19 15.866 19 12C19 8.13401 15.866 5 12 5C8.13401 5 5 8.13401 5 12C5 15.866 8.13401 19 12 19Z" fill="#8AE7C1"/>
<path d="M12 142C18.6274 142 24 136.627 24 130C24 123.373 18.6274 118 12 118C5.37258 118 0 123.373 0 130C0 136.627 5.37258 142 12 142Z" fill="#D0F5E6"/>
<path d="M12 137C15.866 137 19 133.866 19 130C19 126.134 15.866 123 12 123C8.13401 123 5 126.134 5 130C5 133.866 8.13401 137 12 137Z" fill="#8AE7C1"/>
<path d="M12 273C18.6274 273 24 267.627 24 261C24 254.373 18.6274 249 12 249C5.37258 249 0 254.373 0 261C0 267.627 5.37258 273 12 273Z" fill="#D0F5E6"/>
<path d="M12 268C15.866 268 19 264.866 19 261C19 257.134 15.866 254 12 254C8.13401 254 5 257.134 5 261C5 264.866 8.13401 268 12 268Z" fill="#8AE7C1"/>
</svg>
