<svg width="121" height="135" viewBox="0 0 121 135" fill="none" xmlns="http://www.w3.org/2000/svg">
<g clip-path="url(#clip0_218_1542)">
<path d="M92.4594 24.4338L92.0954 24.2018L92.0214 30.9162L92.1352 30.9901C101.519 36.9901 108.017 44.9943 111.595 54.894C111.393 54.8746 111.22 54.8644 111.051 54.8575V54.8507C111.024 54.8507 111.005 54.8542 110.98 54.8542C110.506 54.8393 110.164 54.8587 110.063 54.8689L110.066 54.9019C107.487 55.1112 105.849 56.1135 104.86 57.0759C104.791 57.0088 104.723 56.936 104.655 56.8734C102.855 55.2455 100.675 54.9099 99.4193 54.8598V54.853C99.3942 54.853 99.375 54.8564 99.3509 54.8564C98.8784 54.8416 98.538 54.8609 98.4338 54.8711L98.4377 54.9042C95.572 55.1374 93.8574 56.3512 92.9133 57.3967C90.6198 59.9211 90.8747 63.2487 90.9087 63.6151L95.6823 63.3888C95.6483 62.9496 95.7574 61.4218 96.5026 60.6163C97.0732 60.0065 98.0375 59.6937 99.3634 59.6835C99.9555 59.7255 100.835 59.9133 101.432 60.4696C102.059 61.0441 102.372 62.0315 102.372 63.3887H107.197C107.164 62.9495 107.392 61.4216 108.134 60.6163C108.708 60.0064 109.67 59.6936 110.996 59.6834C111.59 59.7278 112.467 59.9154 113.062 60.4695C113.166 60.5662 113.251 60.6913 113.34 60.8107C114.315 65.045 114.824 69.5775 114.862 74.4009C114.915 80.8138 113.86 87.066 111.789 92.9455L94.6902 92.9443V97.767H109.825C109.215 99.0794 108.54 100.359 107.823 101.623L81.2731 101.624V106.455H104.743C103.075 108.788 101.218 111.011 99.1657 113.097C92.1841 120.195 83.6088 125.141 74.2462 127.606L67.0084 92.7946L80.7681 51.1424H83.1036C87.4208 51.1424 90.9372 47.6304 90.9372 43.3109C90.9372 38.9959 87.4232 35.4793 83.1036 35.4793H79.5861C78.8989 32.327 76.8467 28.9688 73.9094 26.2691C70.7798 23.392 67.0028 21.6082 63.028 21.0711L63.0269 2.89527L60.556 0L58.1988 2.89527V21.0461C49.3286 22.186 42.8941 29.6113 41.5656 35.4782H38.1208C33.8059 35.4782 30.2893 38.9921 30.2893 43.3097C30.2893 47.6281 33.8033 51.1413 38.1208 51.1413H41.9762L43.6087 57.6063L52.2514 100.804L45.7918 127.427C30.7397 123.251 18.2429 112.762 11.3942 98.9945C11.4921 98.4121 11.715 97.6927 12.2293 97.1402C12.8788 96.4421 13.9608 96.0837 15.4407 96.0712C16.0528 96.1088 17.0767 96.2805 17.8149 96.9666C18.5293 97.6281 18.8877 98.7332 18.8877 100.258H23.7146C23.7146 97.3022 22.8124 94.9871 21.0355 93.3706C19.1436 91.6528 16.8444 91.299 15.5201 91.249V91.2376C15.4928 91.2376 15.4701 91.2444 15.4439 91.2444C14.9434 91.2285 14.5827 91.2524 14.4735 91.2626L14.4781 91.323C12.2449 91.5004 10.4223 92.249 9.04714 93.5606C6.94138 87.8429 5.76407 81.685 5.71166 75.2654C5.70028 73.7341 5.75601 72.2301 5.84589 70.7411L28.0332 70.7399V65.9142H6.32614C8.51152 50.1512 16.6535 37.4188 29.8612 29.5159L29.9784 29.4442L29.9933 23.2726L29.6281 23.4877C11.4921 34.3428 0.335825 54.1954 0.501827 75.3039C0.765757 108.007 27.5807 134.608 60.2803 134.608H60.7626C93.7274 134.347 120.338 107.316 120.07 74.3486C119.911 54.0499 109.591 35.3875 92.4626 24.4342L92.4594 24.4338ZM65.0436 83.3503L59.4921 56.6388L58.4841 51.137H75.6818L65.0436 83.3503ZM60.6148 25.7036C67.377 25.7036 73.0094 31.03 74.578 35.476H46.5639C48.135 31.03 53.7743 25.7036 60.6148 25.7036ZM38.1194 46.3131C36.4607 46.3131 35.1138 44.9639 35.1138 43.3075C35.1138 41.65 36.4608 40.3032 38.1194 40.3032H83.1003C84.7578 40.3032 86.1082 41.6524 86.1082 43.3075C86.1082 44.965 84.7578 46.3131 83.1003 46.3131H38.1194ZM60.7217 129.405L60.278 129.408C56.9391 129.408 53.6728 129.087 50.492 128.507L57.1869 100.902L48.3246 56.5991L46.9469 51.1385H53.5737L54.7579 57.5628L69.5255 128.612C66.6416 129.107 63.7031 129.381 60.7216 129.405H60.7217Z" fill="#FAF8F5"/>
</g>
<defs>
<clipPath id="clip0_218_1542">
<rect width="119.571" height="135" fill="white" transform="translate(0.5)"/>
</clipPath>
</defs>
</svg>
