<svg width="61" height="35" viewBox="0 0 61 35" fill="none" xmlns="http://www.w3.org/2000/svg">
<path fill-rule="evenodd" clip-rule="evenodd" d="M18.6901 0.915623C18.464 1.32245 14.4838 8.41263 12.983 11.0819C12.7432 11.5085 12.5469 11.878 12.5469 11.9028C12.5469 11.9278 12.6274 12.0908 12.7257 12.2652C13.8073 14.1832 14.6456 15.6694 15.151 16.5654C15.487 17.161 16.4976 18.9534 17.3967 20.5484C18.2958 22.1435 19.283 23.8946 19.5905 24.4398C19.8981 24.9849 20.294 25.687 20.4705 25.9999C20.6469 26.3129 21.0432 27.015 21.3512 27.5601C21.6591 28.1053 22.0225 28.7496 22.1587 28.9918C22.2949 29.2341 22.8813 30.2749 23.4617 31.3046C24.0421 32.3343 24.6489 33.4123 24.8102 33.7L25.1033 34.2231H31.394H37.6847L37.5941 34.0671C37.5443 33.9813 37.132 33.2503 36.6781 32.4426C36.2241 31.635 35.6753 30.6603 35.4585 30.2767C34.5751 28.7137 34.0609 27.8018 33.9096 27.5299C33.8217 27.3719 33.5746 26.9341 33.3606 26.5571C33.1466 26.18 32.781 25.5328 32.5482 25.1189C32.3154 24.705 32.0316 24.2011 31.9177 23.9992C31.6989 23.6114 30.189 20.9165 27.4852 16.0881C26.5863 14.483 25.6819 12.8723 25.4755 12.5089C24.7286 11.1941 24.5088 10.8048 24.0038 9.90241C23.7213 9.39765 22.9902 8.09259 22.3791 7.00229C21.768 5.91199 21.0416 4.61519 20.7648 4.12052C20.488 3.62585 20.2289 3.16329 20.1889 3.09263C20.0754 2.89237 19.4487 1.77101 19.1321 1.20204C18.9749 0.919367 18.8423 0.683099 18.8376 0.677005C18.8328 0.670911 18.7665 0.778289 18.6901 0.915623ZM5.93847 23.6598C5.3175 24.7578 4.48741 26.2298 3.43881 28.0924C2.85343 29.1323 2.11778 30.4373 1.80403 30.9926C1.49028 31.5478 1.1737 32.1095 1.10047 32.2407C0.850413 32.6891 0.142897 33.9337 0.0714303 34.051C0.0322115 34.1153 7.33761e-05 34.1804 1.42821e-09 34.1956C-7.33733e-05 34.2107 2.82709 34.2227 6.28256 34.2222L12.5653 34.2213L13.5808 32.4142C14.1394 31.4203 15.0155 29.8637 15.5276 28.9551C16.0397 28.0466 16.8774 26.5598 17.3892 25.6512C17.901 24.7426 18.4323 23.8022 18.5701 23.5613C18.7078 23.3204 18.8205 23.1181 18.8205 23.1116C18.8205 23.1051 15.9933 23.0999 12.5378 23.0999L6.25505 23.1001L5.93847 23.6598Z" fill="#22524D"/>
<path fill-rule="evenodd" clip-rule="evenodd" d="M41.7808 33.977C41.5544 33.5701 37.5683 26.4799 36.0654 23.8107C35.8252 23.3841 35.6287 23.0146 35.6287 22.9897C35.6287 22.9648 35.7093 22.8017 35.8078 22.6274C36.8909 20.7094 37.7304 19.2231 38.2366 18.3272C38.5731 17.7316 39.5851 15.9392 40.4855 14.3441C41.3859 12.7491 42.3745 10.998 42.6825 10.4528C42.9905 9.90767 43.3871 9.20559 43.5638 8.89263C43.7405 8.57967 44.1374 7.87759 44.4457 7.33244C44.7541 6.78729 45.1181 6.14302 45.2545 5.90073C45.3909 5.65844 45.9781 4.6177 46.5594 3.58797C47.1406 2.55824 47.7483 1.48031 47.9098 1.19262L48.2034 0.669491H54.5032H60.8031L60.7123 0.825512C60.6624 0.911304 60.2496 1.64232 59.795 2.44995C59.3403 3.25758 58.7907 4.23224 58.5736 4.61586C57.6889 6.17885 57.174 7.09073 57.0225 7.36268C56.9344 7.52069 56.687 7.95846 56.4727 8.33551C56.2583 8.7126 55.8922 9.35977 55.6591 9.77368C55.4259 10.1876 55.1418 10.6914 55.0277 10.8934C54.8085 11.2812 53.2964 13.976 50.5887 18.8045C49.6885 20.4096 48.7828 22.0203 48.5761 22.3837C47.8281 23.6985 47.6079 24.0877 47.1022 24.9902C46.8194 25.4949 46.0872 26.8 45.4752 27.8903C44.8632 28.9806 44.1357 30.2774 43.8585 30.7721C43.5814 31.2667 43.3218 31.7293 43.2817 31.8C43.1681 32.0002 42.5405 33.1216 42.2235 33.6905C42.066 33.9732 41.9333 34.2095 41.9285 34.2156C41.9237 34.2217 41.8573 34.1143 41.7808 33.977ZM29.0106 11.2328C28.3887 10.1348 27.5574 8.66282 26.5073 6.80014C25.9211 5.76031 25.1843 4.45526 24.8701 3.90001C24.5559 3.34476 24.2389 2.7831 24.1656 2.65186C23.9151 2.20348 23.2066 0.958843 23.135 0.841591C23.0957 0.777237 23.0636 0.712185 23.0635 0.697021C23.0634 0.681862 25.8947 0.669895 29.3552 0.670372L35.647 0.671253L36.6641 2.47836C37.2235 3.47226 38.1008 5.02886 38.6137 5.93744C39.1265 6.84602 39.9655 8.3328 40.478 9.24138C40.9905 10.15 41.5227 11.0904 41.6606 11.3313C41.7985 11.5722 41.9114 11.7745 41.9114 11.781C41.9114 11.7875 39.08 11.7927 35.6195 11.7926L29.3276 11.7925L29.0106 11.2328Z" fill="#56B06C"/>
</svg>
