<svg width="21" height="15" viewBox="0 0 21 15" fill="none" xmlns="http://www.w3.org/2000/svg">
<path d="M0.482832 14.5984C0.482832 14.5984 0.482997 14.5984 0.482832 14.5984H19.8435C20.0389 14.5984 20.1975 14.4398 20.1975 14.2443V14.2442L20.1887 2.20897C20.1885 2.01332 20.0297 1.85488 19.8342 1.85505C19.7858 1.85505 19.7379 1.86493 19.6936 1.88436L18.6911 2.32014L18.7027 0.668111C18.7038 0.507044 18.5961 0.365739 18.4408 0.323578C15.1459 -0.567068 12.707 0.936553 10.1621 1.87859C8.14255 1.13091 6.18945 0.0299284 3.82326 0.0523579C3.20814 0.0582865 2.56502 0.139972 1.88552 0.323603C1.73021 0.365599 1.62267 0.50707 1.62399 0.667808L1.63535 2.3208L0.631884 1.88423C0.452372 1.80633 0.24371 1.88851 0.165797 2.0677C0.146363 2.11216 0.136482 2.16025 0.136317 2.20867L0.128906 14.2439C0.128742 14.4397 0.287338 14.5983 0.482825 14.5983L0.482832 14.5984ZM18.6128 12.7252C18.6159 12.7073 18.6172 12.6888 18.6176 12.6707L18.6853 3.09516L19.4807 2.74947L19.4889 13.8904L11.4556 13.8906C13.0144 13.0737 14.8674 12.4731 18.206 13.0183C18.3992 13.0494 18.5812 12.9186 18.6128 12.7254L18.6128 12.7252ZM10.5171 2.5025C12.5586 1.73636 14.3504 0.744443 16.4816 0.760591C16.9651 0.764214 17.4664 0.819877 17.9919 0.941751L17.9121 12.2568C14.2571 11.7462 12.2022 12.6483 10.5171 13.5994L10.5171 2.5025ZM3.84346 0.760591C5.97423 0.74478 7.76656 1.73737 9.80921 2.50352V13.6006C8.12375 12.6489 6.07056 11.7459 2.41211 12.2568L2.33421 0.941249C2.85923 0.819708 3.36023 0.763879 3.8436 0.760418L3.84346 0.760591ZM0.844276 2.74973L1.6404 3.09608L1.70627 12.6708C1.70776 12.8663 1.86734 13.0237 2.06299 13.0226C2.08111 13.0224 2.09939 13.0209 2.1175 13.0178C5.45824 12.4726 7.31002 13.0733 8.86828 13.8901H0.837505L0.844276 2.74973Z" fill="#FAF8F5"/>
</svg>
