<svg width="125" height="135" viewBox="0 0 125 135" fill="none" xmlns="http://www.w3.org/2000/svg">
<g clip-path="url(#clip0_218_1546)">
<path fill-rule="evenodd" clip-rule="evenodd" d="M0.5 62.8966C0.500002 40.1665 12.7317 20.2932 30.972 9.5V16.2847C29.4561 17.3121 27.993 18.4114 26.5876 19.5779C28.8618 21.1251 30.3554 23.7342 30.3554 26.6922C30.3554 26.9464 30.3444 27.1979 30.3228 27.4465H24.5228C24.5882 27.2061 24.6231 26.9533 24.6231 26.6922C24.6231 25.1908 23.4686 23.959 21.999 23.8361C19.4363 26.4927 17.1326 29.4007 15.1285 32.5196C18.3843 33.744 20.7009 36.8867 20.7009 40.5706C20.7009 40.8247 20.6899 41.0763 20.6683 41.3248H14.8683C14.9337 41.0845 14.9686 40.8316 14.9686 40.5706C14.9686 39.0112 13.7232 37.7426 12.1728 37.7052C8.3718 45.2841 6.23236 53.8405 6.23236 62.8966C6.23236 65.0768 6.35635 67.228 6.59767 69.3435L21.7087 47.2582L42.3976 65.9287L60.2246 44.1197L80.9071 62.7844L101.6 38.4251L117.928 53.1606C116.249 43.5331 112.123 34.7465 106.213 27.4651C104.785 27.6282 103.676 28.8409 103.676 30.3127C103.676 30.5737 103.711 30.8266 103.776 31.0669H102.443H97.9762H96.6431C96.7085 30.8266 96.7434 30.5737 96.7434 30.3127C96.7434 28.7297 95.4601 27.4465 93.8772 27.4465C92.2942 27.4465 91.011 28.7297 91.011 30.3127C91.011 30.5737 91.0459 30.8266 91.1113 31.0669H85.3113C85.2897 30.8184 85.2786 30.5668 85.2786 30.3127C85.2786 25.5638 89.1283 21.7141 93.8772 21.7141C96.3828 21.7141 98.638 22.7858 100.21 24.4958C100.766 23.8905 101.408 23.3652 102.116 22.9391C100.071 20.9116 97.8717 19.0399 95.5365 17.3435V10.4219C112.939 21.4014 124.5 40.7989 124.5 62.8966C124.5 97.1382 96.7417 124.897 62.5 124.897C28.2583 124.897 0.500001 97.1382 0.5 62.8966ZM38.7654 70.3723L22.7366 55.9073L8.09464 77.3071C9.95526 84.3503 13.1473 90.8525 17.3851 96.5282L38.7654 70.3723ZM37.8373 113.485C31.5059 110.393 25.841 106.147 21.1164 101.021L60.8531 52.4084L77.1734 67.1364L77.8 66.442L37.8373 113.485ZM118.741 61.1446L118.507 61.404L102.145 46.6381L43.3686 115.828C49.3409 117.987 55.783 119.164 62.5 119.164C93.5758 119.164 118.768 93.9724 118.768 62.8966C118.768 62.3104 118.759 61.7264 118.741 61.1446ZM23.9882 61.5389L28.3795 65.2236L13.6407 82.7886L9.24945 79.1039L23.9882 61.5389ZM34.6196 70.4598L30.2284 66.7751L18.375 80.9014L22.7662 84.5861L34.6196 70.4598ZM58.8978 60.6338L63.2891 64.3185L32.648 100.835L28.2567 97.1505L58.8978 60.6338ZM69.5292 69.5546L65.138 65.8699L40.4954 95.2378L44.8867 98.9225L69.5292 69.5546ZM101.415 53.0912L105.806 56.7759L58.2927 113.4L53.9014 109.715L101.415 53.0912ZM112.046 62.0121L107.655 58.3274L71.0017 102.009L75.393 105.693L112.046 62.0121ZM113.895 63.5635L118.286 67.2482L88.8086 102.378L84.4174 98.6934L113.895 63.5635ZM46.0506 36.6484C46.0506 38.2314 44.7674 39.5146 43.1844 39.5146C41.6015 39.5146 40.3183 38.2314 40.3183 36.6484C40.3183 35.0655 41.6015 33.7822 43.1844 33.7822C44.7674 33.7822 46.0506 35.0655 46.0506 36.6484ZM51.783 36.6484C51.783 41.3973 47.9333 45.247 43.1844 45.247C38.4356 45.247 34.5859 41.3973 34.5859 36.6484C34.5859 31.8996 38.4356 28.0499 43.1844 28.0499C47.9333 28.0499 51.783 31.8996 51.783 36.6484Z" fill="#FAF8F5"/>
</g>
<defs>
<clipPath id="clip0_218_1546">
<rect width="124" height="135" fill="white" transform="translate(0.5)"/>
</clipPath>
</defs>
</svg>
