<svg width="125" height="135" viewBox="0 0 125 135" fill="none" xmlns="http://www.w3.org/2000/svg">
<g clip-path="url(#clip0_218_1529)">
<path d="M95.8719 20.2132L95.4908 19.9725L95.4165 26.9321L95.5298 27.0088C108.714 35.442 116.398 47.6907 118.492 63.4665L102.059 48.4995L90.3491 61.9799V21.1851C90.3491 8.35259 84.3037 3.3172 79.2309 1.35403C73.3673 -0.912355 65.0722 0.0515339 63.7991 1.45077L63.1479 2.16808V17.569C58.4088 17.8746 55.0581 19.0898 52.9439 21.2595C50.0699 24.2113 50.1714 28.0267 50.2564 31.0896C50.2693 31.6877 50.2882 32.2682 50.2764 32.8215C50.2693 33.2262 50.2634 33.6957 50.2575 34.1948H27.6242V65.6116L24.0198 62.2987L6.28271 78.9869C6.05147 76.9942 5.91934 74.9769 5.90164 72.9286C5.85091 66.4927 6.6697 60.4391 8.30016 54.8529C9.00213 54.4092 9.81265 54.283 10.3353 54.2511C11.8679 54.2641 12.991 54.6369 13.6636 55.3625C14.7255 56.5105 14.624 58.8135 14.6228 58.8277H19.5779C19.618 58.423 19.8941 54.7799 17.3905 52.0203C15.924 50.4063 13.8677 49.5321 11.3289 49.3316L11.3359 49.2643C11.2144 49.2525 10.864 49.2289 10.3874 49.256C10.3555 49.256 10.3296 49.249 10.2989 49.249C14.4376 39.328 21.415 31.1899 30.9464 25.4867L31.0703 25.4159L31.0856 19.012L30.7045 19.2385C16.1671 27.9405 5.98211 42.2255 2.17475 58.3722C2.11105 58.4347 2.04498 58.4689 1.97537 58.4654L2.15116 58.4784C1.05042 63.1833 0.462887 68.0393 0.501818 72.972C0.603281 85.6076 4.53207 97.3643 11.1706 107.149L11.0762 107.25L11.5552 107.703C22.7773 123.86 41.4571 134.484 62.489 134.484L62.9916 134.477C79.524 134.352 95.0337 127.767 106.668 115.952C118.297 104.133 124.631 88.5194 124.498 71.9858C124.333 50.9276 113.629 31.5746 95.8703 20.2153L95.8719 20.2132ZM102.479 55.653L119.057 70.7483C119.069 71.1778 119.095 71.5942 119.097 72.0272C119.219 87.1237 113.44 101.372 102.825 112.161C92.2077 122.95 78.0465 128.956 62.9509 129.078L62.4943 129.085C44.46 129.085 28.329 120.525 17.9423 107.267L53.5543 69.5227L73.2876 89.2511L102.479 55.653ZM65.2932 54.0462V74.1781L53.454 62.3353L47.9043 68.2188V54.0446L65.2932 54.0462ZM56.5296 24.7544C57.989 23.2572 61.0551 22.4986 65.6529 22.4986H68.1529V5.20876C70.9608 4.82651 76.3783 4.59646 80.3046 7.62615C83.6517 10.2052 85.3482 14.7685 85.3482 21.1856V67.7401L73.03 81.9166L70.2988 79.1854V49.0404H55.2811C55.2681 47.0819 55.2068 37.023 55.2811 32.9149C55.2941 32.2896 55.2764 31.6313 55.2587 30.9599C55.1938 28.5083 55.1312 26.1937 56.5293 24.7542L56.5296 24.7544ZM32.6281 39.1985H50.2399C50.2399 43.3444 50.2658 47.7332 50.2753 49.0404H42.8992V73.5224L39.8046 76.8021L32.6278 70.2094L32.6281 39.1985ZM24.0617 69.1321L36.3693 80.4439L14.9843 103.108C11.4225 97.6144 8.78576 91.4727 7.29918 84.9024L24.0617 69.1321Z" fill="#FAF8F5"/>
<path d="M101.085 63.0586L104.812 66.3988L85.561 87.8792L81.834 84.5391L101.085 63.0586Z" fill="#FAF8F5"/>
<path d="M107.083 68.0605L110.815 71.4039L78.9962 106.916L75.2646 103.573L107.083 68.0605Z" fill="#FAF8F5"/>
<path d="M116.823 76.4104L92.3368 103.745L88.6074 100.405L113.094 73.0703L116.823 76.4104Z" fill="#FAF8F5"/>
<path d="M23.1527 73.6484L26.6979 77.1831L14.9095 89.008L11.3643 85.4734L23.1527 73.6484Z" fill="#FAF8F5"/>
<path d="M31.8851 81.9924L25.3667 88.5331L21.8203 84.9997L28.3387 78.459L31.8851 81.9924Z" fill="#FAF8F5"/>
<path d="M70.9872 100.23L49.8477 80.5934L53.2525 76.9277L74.392 96.5643L70.9872 100.23Z" fill="#FAF8F5"/>
<path d="M79.8858 119.169L44.3252 86.1427L47.7324 82.4746L83.293 115.501L79.8858 119.169Z" fill="#FAF8F5"/>
<path d="M65.6996 116.637L38.8086 91.6591L42.2145 87.9922L69.1055 112.97L65.6996 116.637Z" fill="#FAF8F5"/>
<path d="M46.3633 110.447L33.29 97.7927L36.7682 94.1992L49.8414 106.853L46.3633 110.447Z" fill="#FAF8F5"/>
</g>
<defs>
<clipPath id="clip0_218_1529">
<rect width="124" height="135" fill="white" transform="translate(0.5)"/>
</clipPath>
</defs>
</svg>
