<svg width="1162" height="746" viewBox="0 0 1162 746" fill="none" xmlns="http://www.w3.org/2000/svg">
<g opacity="0.5" clip-path="url(#clip0_492_27710)">
<g style="mix-blend-mode:color-burn" opacity="0.33">
<g filter="url(#filter0_d_492_27710)">
<path d="M186.045 -76.3342C186.045 -76.3342 222.009 149.507 382.862 223.959C543.714 298.411 721.246 325.868 810.853 518.143C900.459 710.418 1028.71 790.403 1173.89 826.127C1319.07 861.851 1370.04 958.178 1370.04 958.178L1849.27 388.814L662.896 -609.641L186.045 -76.3342Z" fill="#08516B"/>
</g>
</g>
<path d="M186.045 -76.3342C186.045 -76.3342 222.009 149.507 382.861 223.959C543.714 298.411 721.246 325.868 810.853 518.143C900.459 710.418 1028.71 790.403 1173.89 826.127C1319.07 861.851 1370.04 958.178 1370.04 958.178L1849.27 388.814L662.896 -609.641L186.045 -76.3342Z" fill="#2991AB"/>
<g style="mix-blend-mode:color-burn" opacity="0.5">
<g filter="url(#filter1_d_492_27710)">
<path d="M1800.66 234.652L1332.81 930.612C1332.81 930.612 1267.18 735.811 1096.24 655.359C925.301 574.908 914.882 632.708 709.352 330.527C503.822 28.3458 276.205 201.537 94.5177 -5.3444L506.842 -618.709L1800.66 234.652Z" fill="#08516B"/>
</g>
</g>
<path d="M1800.66 234.652L1332.81 930.612C1332.81 930.612 1267.18 735.811 1096.24 655.359C925.301 574.908 914.882 632.708 709.352 330.527C503.822 28.3458 276.205 201.537 94.5174 -5.3444L506.842 -618.709L1800.66 234.652Z" fill="url(#paint0_linear_492_27710)"/>
<g style="mix-blend-mode:color-burn" opacity="0.3">
<g filter="url(#filter2_d_492_27710)">
<path d="M681.081 -569.709L267.239 -0.875815C267.239 -0.875815 267.719 54.7009 344.828 96.3817C421.938 138.063 676.36 -10.933 777.848 144.596C879.336 300.125 790.188 482.756 1014.42 540.099C1238.64 597.442 1420.59 614.47 1497.41 730.385L1833.46 268.313L681.081 -569.709Z" fill="#08516B"/>
</g>
</g>
<path d="M681.081 -569.709L267.239 -0.875815C267.239 -0.875815 267.719 54.7009 344.828 96.3817C421.938 138.063 676.36 -10.933 777.848 144.596C879.336 300.125 790.188 482.756 1014.42 540.099C1238.64 597.442 1420.59 614.47 1497.41 730.385L1833.46 268.313L681.081 -569.709Z" fill="#08516B"/>
<g style="mix-blend-mode:color-burn" opacity="0.5">
<g filter="url(#filter3_d_492_27710)">
<path d="M385.443 -135.088C388.778 -58.1653 444.894 37.5748 636.926 46.3574C828.958 55.1399 859.033 154.583 860.662 253.789C862.291 352.995 913.252 417.207 1223.13 448.388C1533.02 479.569 1522.71 561.473 1603.89 615.53C1685.07 669.587 1895.27 267.893 1895.27 267.893L665.141 -551.214L385.443 -135.088Z" fill="#08516B"/>
</g>
</g>
<path d="M385.444 -135.088C388.778 -58.1653 444.894 37.5748 636.926 46.3574C828.959 55.1399 859.033 154.583 860.662 253.789C862.291 352.995 913.252 417.207 1223.13 448.388C1533.02 479.569 1522.71 561.473 1603.89 615.53C1685.07 669.587 1895.27 267.893 1895.27 267.893L665.141 -551.214L385.444 -135.088Z" fill="url(#paint1_linear_492_27710)"/>
</g>
<defs>
<filter id="filter0_d_492_27710" x="-27.9553" y="-719.642" width="1891.23" height="1795.82" filterUnits="userSpaceOnUse" color-interpolation-filters="sRGB">
<feFlood flood-opacity="0" result="BackgroundImageFix"/>
<feColorMatrix in="SourceAlpha" type="matrix" values="0 0 0 0 0 0 0 0 0 0 0 0 0 0 0 0 0 0 127 0" result="hardAlpha"/>
<feOffset dx="-100" dy="4"/>
<feGaussianBlur stdDeviation="57"/>
<feComposite in2="hardAlpha" operator="out"/>
<feColorMatrix type="matrix" values="0 0 0 0 0 0 0 0 0 0 0 0 0 0 0 0 0 0 0.8 0"/>
<feBlend mode="normal" in2="BackgroundImageFix" result="effect1_dropShadow_492_27710"/>
<feBlend mode="normal" in="SourceGraphic" in2="effect1_dropShadow_492_27710" result="shape"/>
</filter>
<filter id="filter1_d_492_27710" x="8.5177" y="-664.709" width="1846.14" height="1689.32" filterUnits="userSpaceOnUse" color-interpolation-filters="sRGB">
<feFlood flood-opacity="0" result="BackgroundImageFix"/>
<feColorMatrix in="SourceAlpha" type="matrix" values="0 0 0 0 0 0 0 0 0 0 0 0 0 0 0 0 0 0 127 0" result="hardAlpha"/>
<feOffset dx="-16" dy="24"/>
<feGaussianBlur stdDeviation="35"/>
<feComposite in2="hardAlpha" operator="out"/>
<feColorMatrix type="matrix" values="0 0 0 0 0 0 0 0 0 0 0 0 0 0 0 0 0 0 0.6 0"/>
<feBlend mode="normal" in2="BackgroundImageFix" result="effect1_dropShadow_492_27710"/>
<feBlend mode="normal" in="SourceGraphic" in2="effect1_dropShadow_492_27710" result="shape"/>
</filter>
<filter id="filter2_d_492_27710" x="224.239" y="-590.709" width="1616.22" height="1350.09" filterUnits="userSpaceOnUse" color-interpolation-filters="sRGB">
<feFlood flood-opacity="0" result="BackgroundImageFix"/>
<feColorMatrix in="SourceAlpha" type="matrix" values="0 0 0 0 0 0 0 0 0 0 0 0 0 0 0 0 0 0 127 0" result="hardAlpha"/>
<feOffset dx="-18" dy="4"/>
<feGaussianBlur stdDeviation="12.5"/>
<feComposite in2="hardAlpha" operator="out"/>
<feColorMatrix type="matrix" values="0 0 0 0 0 0 0 0 0 0 0 0 0 0 0 0 0 0 0.78 0"/>
<feBlend mode="normal" in2="BackgroundImageFix" result="effect1_dropShadow_492_27710"/>
<feBlend mode="normal" in="SourceGraphic" in2="effect1_dropShadow_492_27710" result="shape"/>
</filter>
<filter id="filter3_d_492_27710" x="342.443" y="-554.214" width="1555.82" height="1217.75" filterUnits="userSpaceOnUse" color-interpolation-filters="sRGB">
<feFlood flood-opacity="0" result="BackgroundImageFix"/>
<feColorMatrix in="SourceAlpha" type="matrix" values="0 0 0 0 0 0 0 0 0 0 0 0 0 0 0 0 0 0 127 0" result="hardAlpha"/>
<feOffset dx="-20" dy="20"/>
<feGaussianBlur stdDeviation="11.5"/>
<feComposite in2="hardAlpha" operator="out"/>
<feColorMatrix type="matrix" values="0 0 0 0 0 0 0 0 0 0 0 0 0 0 0 0 0 0 0.6 0"/>
<feBlend mode="normal" in2="BackgroundImageFix" result="effect1_dropShadow_492_27710"/>
<feBlend mode="normal" in="SourceGraphic" in2="effect1_dropShadow_492_27710" result="shape"/>
</filter>
<linearGradient id="paint0_linear_492_27710" x1="506.842" y1="-618.709" x2="376.051" y2="845.127" gradientUnits="userSpaceOnUse">
<stop offset="0.253361" stop-color="#8AE7C1"/>
<stop offset="1" stop-color="#019AC1"/>
</linearGradient>
<linearGradient id="paint1_linear_492_27710" x1="1225.16" y1="-106.008" x2="1074" y2="142.998" gradientUnits="userSpaceOnUse">
<stop stop-color="#354954"/>
<stop offset="0.526042" stop-color="#3D53A0"/>
<stop offset="1" stop-color="#4573CD"/>
</linearGradient>
<clipPath id="clip0_492_27710">
<rect width="1784.76" height="1058.36" fill="white" transform="translate(586.786 -748.389) rotate(33.6586)"/>
</clipPath>
</defs>
</svg>
