<svg width="1440" height="2273" viewBox="0 0 1440 2273" fill="none" xmlns="http://www.w3.org/2000/svg" xmlns:xlink="http://www.w3.org/1999/xlink">
<g opacity="0.4" clip-path="url(#clip0_139_564)">
<g style="mix-blend-mode:color-burn" opacity="0.33">
<rect x="292.872" y="26.6895" width="2422.56" height="1024.96" transform="rotate(33.6586 292.872 26.6895)" fill="url(#pattern0)"/>
<path d="M-72.9791 680.826C-72.9791 680.826 15.4749 941.619 235.601 1055.54C455.726 1169.46 688.416 1233.64 839.326 1466.74C990.237 1699.84 1169.62 1813.86 1362.39 1881.28C1555.16 1948.7 1638.56 2066.61 1638.56 2066.61L2145.99 1516.03L438.163 170.352L-72.9791 680.826Z" fill="#08516B"/>
</g>
<path d="M-72.9791 680.826C-72.9791 680.826 15.475 941.619 235.601 1055.54C455.726 1169.46 688.416 1233.64 839.326 1466.74C990.237 1699.84 1169.62 1813.86 1362.39 1881.28C1555.16 1948.7 1638.56 2066.61 1638.56 2066.61L2145.99 1516.03L438.163 170.352L-72.9791 680.826Z" fill="#2991AB"/>
<g style="mix-blend-mode:color-burn" opacity="0.5">
<rect width="2334.56" height="951.58" transform="matrix(0.833578 0.552387 -0.561448 0.82754 205.488 41.6807)" fill="url(#pattern1)"/>
<path d="M2054.77 1333.49L1582.85 2029.08C1582.85 2029.08 1462.91 1797.52 1228.98 1674.92C995.054 1552.32 992.316 1615.42 673.303 1236.77C354.29 858.125 94.3006 1010.38 -176.637 743.459L239.281 130.421L2054.77 1333.49Z" fill="#08516B"/>
</g>
<path d="M2054.77 1333.49L1585.68 2028.62C1585.68 2028.62 1465.02 1797.18 1230.84 1674.62C996.658 1552.06 994.146 1615.12 674.045 1236.65C353.943 858.182 94.6956 1010.31 -176.973 743.514L236.451 130.881L2054.77 1333.49Z" fill="url(#paint0_linear_139_564)"/>
<g style="mix-blend-mode:color-burn" opacity="0.3">
<rect x="383.404" y="63.5918" width="2276.57" height="921.162" transform="rotate(33.6586 383.404 63.5918)" fill="url(#pattern2)"/>
<path d="M468.96 218.682L45.2387 780.938C45.2387 780.938 56.2785 843.546 162.926 904.895C269.573 966.244 567.714 846.36 726.961 1040.35C886.207 1234.34 806.203 1423.06 1104.35 1529.62C1402.49 1636.18 1638.88 1689.46 1759.07 1834.26L2103.12 1377.51L468.96 218.682Z" fill="#08516B"/>
</g>
<path d="M468.96 218.682L45.2388 780.938C45.2388 780.938 56.2786 843.546 162.926 904.895C269.573 966.244 567.714 846.36 726.961 1040.35C886.207 1234.34 806.203 1423.06 1104.35 1529.62C1402.49 1636.18 1638.88 1689.46 1759.08 1834.26L2103.12 1377.51L468.96 218.682Z" fill="#08516B"/>
<g style="mix-blend-mode:color-burn" opacity="0.5">
<rect x="373.406" y="37.4492" width="2440.81" height="872.509" transform="rotate(33.6586 373.406 37.4492)" fill="url(#pattern3)"/>
<path d="M171.566 652.133C190.268 739.288 280.147 857.51 527.919 903.408C775.69 949.305 832.887 1066.81 853.582 1178.71C874.277 1290.61 951.637 1372.4 1354.66 1465.6C1757.67 1558.8 1759.82 1649 1874.01 1725.03C1988.2 1801.07 2182.26 1388.63 2182.26 1388.63L451.999 236.497L171.566 652.133Z" fill="#08516B"/>
</g>
<path d="M171.566 652.134C190.268 739.289 280.147 857.511 527.919 903.409C775.69 949.306 832.887 1066.81 853.582 1178.71C874.277 1290.61 951.637 1372.4 1354.66 1465.6C1757.67 1558.8 1759.82 1649 1874.01 1725.03C1988.2 1801.07 2182.26 1388.63 2182.26 1388.63L451.999 236.498L171.566 652.134Z" fill="url(#paint1_linear_139_564)"/>
</g>
<defs>
<pattern id="pattern0" patternContentUnits="objectBoundingBox" width="1" height="1">
<use xlink:href="#image0_139_564" transform="scale(0.00188324 0.00316456)"/>
</pattern>
<pattern id="pattern1" patternContentUnits="objectBoundingBox" width="1" height="1">
<use xlink:href="#image1_139_564" transform="scale(0.00209205 0.00364964)"/>
</pattern>
<pattern id="pattern2" patternContentUnits="objectBoundingBox" width="1" height="1">
<use xlink:href="#image2_139_564" transform="scale(0.00200401 0.00352113)"/>
</pattern>
<pattern id="pattern3" patternContentUnits="objectBoundingBox" width="1" height="1">
<use xlink:href="#image3_139_564" transform="scale(0.00186916 0.00371747)"/>
</pattern>
<linearGradient id="paint0_linear_139_564" x1="236.451" y1="130.881" x2="-101.533" y2="1654.3" gradientUnits="userSpaceOnUse">
<stop offset="0.253361" stop-color="#8AE7C1"/>
<stop offset="1" stop-color="#019AC1"/>
</linearGradient>
<linearGradient id="paint1_linear_139_564" x1="1253.27" y1="842.346" x2="1099.04" y2="1089.61" gradientUnits="userSpaceOnUse">
<stop stop-color="#354954"/>
<stop offset="0.526042" stop-color="#3D53A0"/>
<stop offset="1" stop-color="#4573CD"/>
</linearGradient>
<clipPath id="clip0_139_564">
<rect width="2510.39" height="1058.36" fill="white" transform="translate(314.59) rotate(33.6586)"/>
</clipPath>
</defs>
</svg>
