<svg width="64" height="64" viewBox="0 0 64 64" fill="none" xmlns="http://www.w3.org/2000/svg">
<path d="M23.4019 10.6289C26.3605 10.6289 29.0043 11.8242 30.9555 13.7749C32.9067 15.7251 34.103 18.3676 34.103 21.3248C34.103 24.282 32.9071 26.9245 30.9555 28.8748C30.2629 29.567 29.4448 30.1332 28.6266 30.6363C31.3332 31.5173 33.7253 32.964 35.7397 34.9147C38.8872 38.0607 40.8384 42.4019 40.8384 47.1834V49.2596C40.8384 50.3921 40.3979 51.3986 39.6426 52.1536C38.8872 52.9086 37.8802 53.3489 36.7472 53.3489H10.0571C8.92403 53.3489 7.91702 52.9086 7.16166 52.1536C6.4063 51.3986 5.96582 50.3921 5.96582 49.2596V47.1834C5.96582 42.4019 7.91702 38.0607 11.0645 34.9147C13.0157 32.9645 15.4706 31.4545 18.1776 30.6363C17.2962 30.1328 16.5409 29.5666 15.8487 28.8748C13.8975 26.9245 12.7013 24.282 12.7013 21.3248C12.7013 18.3676 13.8971 15.7251 15.8487 13.7749C17.7995 11.8242 20.4433 10.6289 23.4019 10.6289ZM49.9658 30.825C51.6025 31.454 53.1132 32.461 54.3719 33.719C56.7008 36.0468 58.1487 39.2555 58.1487 42.779V44.2262C58.1487 45.1072 57.771 45.9877 57.2045 46.554C56.5752 47.1202 55.7566 47.4977 54.8756 47.4977H43.734C42.9787 47.4977 42.2861 46.8687 42.2861 46.0505V45.9877C42.2233 43.8487 41.7824 41.7725 41.027 39.885C40.2089 37.8715 39.0758 36.0472 37.6279 34.474C37.0614 33.9078 37.1242 32.964 37.6907 32.4606C37.7535 32.3978 37.7535 32.3978 37.8168 32.3346C38.6982 31.7056 39.6424 31.1393 40.7122 30.7618C40.3345 30.5103 40.0196 30.1956 39.7052 29.8808C38.2572 28.4336 37.3763 26.4206 37.3763 24.2184C37.3763 22.0162 38.2577 20.0031 39.7052 18.5559C41.1531 17.1087 43.1671 16.2282 45.3704 16.2282C47.5736 16.2282 49.5877 17.1091 51.0356 18.5559C52.4835 20.0031 53.3644 22.0162 53.3644 24.2184C53.3644 26.4206 52.4831 28.4336 51.0356 29.8808C50.7211 30.2588 50.3434 30.5103 49.9657 30.825L49.9658 30.825ZM45.3076 32.7753C44.2373 32.7753 43.2303 32.964 42.2861 33.2788C41.7824 33.4675 41.2791 33.6563 40.8382 33.9078C41.9712 35.4178 42.9154 37.0537 43.6708 38.878C44.4262 40.7027 44.8666 42.653 45.0555 44.6665H54.8124C54.9384 44.6665 55.064 44.6037 55.1272 44.5405C55.19 44.4777 55.2533 44.3517 55.2533 44.2258V42.7785C55.2533 40.0101 54.1202 37.5564 52.3579 35.7321C50.5323 33.9078 48.0774 32.7753 45.3076 32.7753ZM48.9583 20.5703C48.0141 19.6265 46.755 19.0603 45.3076 19.0603C43.8596 19.0603 42.601 19.6265 41.6568 20.5703C40.7126 21.514 40.1461 22.7725 40.1461 24.2193C40.1461 25.6665 40.7126 26.9245 41.6568 27.8683C42.601 28.812 43.8601 29.3782 45.3076 29.3782C46.7555 29.3782 48.0141 28.812 48.9583 27.8683C49.9025 26.9245 50.469 25.666 50.469 24.2193C50.469 22.772 49.9025 21.514 48.9583 20.5703ZM33.6623 36.9914C31.0185 34.3489 27.4306 32.7129 23.4021 32.7129C19.4365 32.7129 15.7857 34.3489 13.142 36.9914C10.4982 39.6339 8.86144 43.2201 8.86144 47.2466V49.3228C8.86144 49.6376 8.98748 49.9519 9.17632 50.1406C9.36516 50.3294 9.68003 50.4553 9.99448 50.4553H36.6209C36.9358 50.4553 37.2502 50.3294 37.4391 50.1406C37.6279 49.9519 37.8168 49.6371 37.8168 49.3228V47.2466C37.9428 43.2201 36.2432 39.5707 33.6623 36.9914ZM28.8785 15.7879C27.4938 14.4039 25.5422 13.5229 23.4021 13.5229C21.2621 13.5229 19.3104 14.4039 17.863 15.7879C16.415 17.1719 15.5969 19.1226 15.5969 21.2616C15.5969 23.4006 16.4783 25.3513 17.863 26.7981C19.2476 28.1821 21.1993 29.0631 23.4021 29.0631C25.5422 29.0631 27.4938 28.1821 28.8785 26.7981C30.2632 25.4141 31.1446 23.4634 31.1446 21.2616C31.2074 19.1226 30.3264 17.1723 28.8785 15.7879Z" fill="url(#paint0_linear_437_28042)"/>
<defs>
<linearGradient id="paint0_linear_437_28042" x1="6.00012" y1="53" x2="53.125" y2="-0.00275854" gradientUnits="userSpaceOnUse">
<stop offset="0.0729167" stop-color="#F54A2E"/>
<stop offset="0.348958" stop-color="#99D1AD"/>
<stop offset="0.484375" stop-color="#8AE7C1"/>
<stop offset="0.630208" stop-color="#7BDBC6"/>
<stop offset="0.765625" stop-color="#2DB1C3"/>
<stop offset="0.90625" stop-color="#019AC1"/>
</linearGradient>
</defs>
</svg>
