<svg width="64" height="64" viewBox="0 0 64 64" fill="none" xmlns="http://www.w3.org/2000/svg">
<path d="M44.1763 6C44.1463 6.00078 44.1163 6.00275 44.0863 6.00667C44.0753 6.00864 44.0646 6.01099 44.0536 6.01335H36.5093C36.0212 6.01531 35.627 6.41016 35.629 6.89569V8.1941H27.8122C27.7818 8.19253 27.751 8.19253 27.7206 8.1941C27.4389 8.22314 27.1879 8.38485 27.0463 8.62859C26.9042 8.87273 26.8888 9.16946 27.0044 9.42694L28.8964 13.6978L27.0044 17.9686V17.9682C26.8841 18.2402 26.9101 18.5534 27.0731 18.8023C27.2361 19.0507 27.5138 19.2007 27.8122 19.2015H36.5094C36.7453 19.2026 36.9722 19.11 37.1391 18.9444C37.306 18.7787 37.3996 18.5534 37.3984 18.3187V17.0203H43.3022V27.8853H38.0368H38.0372C37.551 27.8872 37.1576 28.2794 37.1569 28.7629V34.0382H24.9623C24.7275 34.037 24.5022 34.1292 24.3357 34.2937C24.1692 34.4585 24.0753 34.6823 24.0749 34.9154V40.1906H11.8803C11.3942 40.1926 11.0008 40.5847 11 41.0683V56.1173C10.998 56.6028 11.3922 56.998 11.8803 57H51.1197C51.6078 56.998 52.002 56.6028 52 56.1173V28.7624V28.7628C51.9992 28.2792 51.6058 27.8871 51.1197 27.8852H45.0706V6.89576C45.0745 6.65829 44.9822 6.42907 44.8137 6.26069C44.6452 6.09191 44.4152 5.99849 44.1764 6.00125L44.1763 6ZM37.3988 7.77218H43.3026V15.2678H37.3984L37.3988 7.77218ZM29.164 9.95291H35.629V17.4418L29.164 17.4414L30.671 14.0467C30.7704 13.8214 30.7704 13.5647 30.671 13.3394L29.164 9.95291ZM38.9246 29.6441H50.2322V55.2405H38.9246V29.6441ZM25.8421 35.7969H37.1568V55.2409H25.8421V35.7969ZM12.7667 41.9498H24.0744V55.2403H12.7667V41.9498Z" fill="url(#paint0_linear_437_28037)"/>
<defs>
<linearGradient id="paint0_linear_437_28037" x1="11.027" y1="56.5835" x2="65.2051" y2="16.4793" gradientUnits="userSpaceOnUse">
<stop stop-color="#FF704B"/>
<stop offset="0.5" stop-color="#8AE7C1"/>
<stop offset="1" stop-color="#4DB8D4"/>
</linearGradient>
</defs>
</svg>
