<svg width="338" height="234" viewBox="0 0 338 234" fill="none" xmlns="http://www.w3.org/2000/svg">
<path d="M221.735 180.093C209.767 190.255 194.989 196.534 179.366 198.093C163.743 199.652 148.016 196.417 134.276 188.82C120.536 181.222 109.435 169.622 102.449 155.561C95.4636 141.5 92.9241 125.646 95.1688 110.107C97.4134 94.5674 104.336 80.0798 115.015 68.5709C125.695 57.0619 139.625 49.0771 154.953 45.6785C170.281 42.2798 186.281 43.6284 200.824 49.5449C215.367 55.4614 227.764 65.6654 236.367 78.7996L234.728 79.8731C226.343 67.0717 214.26 57.1264 200.086 51.3598C185.911 45.5932 170.317 44.2788 155.377 47.5913C140.438 50.9038 126.86 58.6863 116.452 69.9036C106.043 81.1209 99.2957 95.2413 97.1079 110.387C94.9202 125.532 97.3953 140.985 104.204 154.689C111.013 168.394 121.833 179.7 135.224 187.105C148.616 194.51 163.945 197.663 179.172 196.143C194.399 194.624 208.802 188.504 220.467 178.599L221.735 180.093Z" fill="#8AE7C1" fill-opacity="0.96" stroke="url(#paint0_linear_437_26577)" stroke-width="2.83082" stroke-linejoin="round"/>
<path d="M233.28 158.176C224.76 172.381 211.578 183.192 195.981 188.768C180.383 194.344 163.335 194.339 147.74 188.754C132.146 183.169 118.97 172.35 110.459 158.14C101.947 143.93 98.6261 127.208 101.061 110.824C103.497 94.4394 111.538 79.4064 123.814 68.2861C136.091 57.1658 151.843 50.6463 168.388 49.8383C184.932 49.0304 201.245 53.984 214.547 63.8552C227.848 73.7264 237.316 87.9043 241.336 103.973L239.576 104.414C235.658 88.7519 226.43 74.9332 213.465 65.3122C200.501 55.6912 184.601 50.8631 168.476 51.6506C152.351 52.438 136.998 58.7924 125.032 69.6309C113.067 80.4694 105.23 95.1214 102.856 111.09C100.483 127.06 103.719 143.358 112.015 157.208C120.311 171.058 133.153 181.603 148.352 187.046C163.551 192.489 180.167 192.494 195.37 187.06C210.572 181.625 223.42 171.087 231.724 157.242L233.28 158.176Z" fill="#02394A" fill-opacity="0.96" stroke="#02394A" stroke-width="0.566164" stroke-linejoin="round"/>
<path d="M208.731 174.515C196.418 183.054 181.525 187.06 166.59 185.849C151.654 184.639 137.6 178.287 126.823 167.876C116.046 157.466 109.212 143.64 107.485 128.756C105.758 113.871 109.246 98.8484 117.354 86.2472C125.462 73.6459 137.689 64.2458 151.951 59.6486C166.212 55.0513 181.627 55.5414 195.568 61.0353C209.509 66.5291 221.114 76.6868 228.405 89.7777C235.696 102.869 238.223 118.083 235.554 132.827L233.939 132.535C236.54 118.164 234.077 103.335 226.971 90.5763C219.864 77.8172 208.554 67.9169 194.966 62.5623C181.379 57.2077 166.355 56.73 152.454 61.2108C138.554 65.6915 126.637 74.8534 118.735 87.1353C110.832 99.4172 107.433 114.059 109.115 128.567C110.798 143.074 117.459 156.549 127.963 166.696C138.468 176.843 152.165 183.033 166.722 184.213C181.279 185.393 195.795 181.489 207.796 173.166L208.731 174.515Z" fill="#02394A" fill-opacity="0.96" stroke="#02394A" stroke-width="0.566164"/>
<path d="M190.15 177.124C177.204 181.394 163.177 181.042 150.461 176.13C137.745 171.217 127.125 162.047 120.412 150.183C113.699 138.318 111.307 124.493 113.644 111.062C115.982 97.632 122.904 85.4276 133.231 76.5286C143.558 67.6297 156.651 62.5867 170.279 62.259C183.907 61.9314 197.228 66.3393 207.97 74.7317C218.713 83.1241 226.213 94.9818 229.193 108.284C232.174 121.587 230.449 135.511 224.314 147.685L222.98 147.013C228.96 135.148 230.641 121.576 227.736 108.611C224.832 95.6453 217.521 84.0882 207.051 75.9084C196.58 67.7287 183.598 63.4325 170.315 63.7518C157.032 64.0712 144.271 68.9863 134.205 77.6598C124.14 86.3333 117.394 98.2284 115.116 111.318C112.837 124.408 115.168 137.883 121.712 149.447C128.255 161.011 138.605 169.949 150.999 174.737C163.393 179.525 177.064 179.867 189.682 175.706L190.15 177.124Z" fill="#02394A" fill-opacity="0.96" stroke="#02394A" stroke-width="0.566164"/>
<path d="M157.749 172.967C145.832 169.673 135.426 162.349 128.304 152.242C121.182 142.136 117.785 129.873 118.691 117.542C119.597 105.212 124.75 93.5768 133.273 84.62C141.795 75.6631 153.16 69.9385 165.43 68.4214C177.701 66.9044 190.118 69.6889 200.565 76.3005C211.012 82.912 218.844 92.9415 222.726 104.68C226.608 116.419 226.299 129.14 221.853 140.677C217.406 152.213 209.097 161.851 198.342 167.948L197.674 166.77C208.157 160.828 216.255 151.434 220.589 140.19C224.923 128.945 225.223 116.546 221.44 105.105C217.657 93.6642 210.023 83.8888 199.841 77.4448C189.658 71.0009 177.556 68.2869 165.597 69.7655C153.637 71.2441 142.561 76.8236 134.254 85.5535C125.947 94.2834 120.924 105.623 120.041 117.641C119.158 129.66 122.47 141.612 129.411 151.462C136.353 161.312 146.495 168.451 158.11 171.662L157.749 172.967Z" fill="#02394A" fill-opacity="0.96" stroke="#02394A" stroke-width="0.566164"/>
<path d="M288.178 24.9121C291.811 70.5827 277.364 167.869 196.176 192.214" stroke="#8AE7C1" stroke-width="1.41541"/>
<path d="M281.814 25.3359C289.39 64.1797 283.378 152.021 198.724 192.637" stroke="#8AE7C1" stroke-width="1.41541"/>
<path d="M275.84 25.3359C284.45 62.514 282.516 150.317 198.016 193.062" stroke="#8AE7C1" stroke-width="1.41541"/>
<path d="M269.069 25.3359C278.467 63.4726 277.915 150.89 200.705 193.204" stroke="#8AE7C1" stroke-width="1.41541"/>
<path d="M263.408 25.4785C272.805 63.6151 279.33 147.353 202.121 189.666" stroke="#8AE7C1" stroke-width="1.41541"/>
<path d="M257.119 25.4785C266.514 63.5173 277.892 148.311 200.705 190.515" stroke="#8AE7C1" stroke-width="1.41541"/>
<path d="M172.114 73.4609C145.38 73.4609 123.707 95.1335 123.707 121.868C132.577 115.64 152.525 107.318 172.114 114.791C191.703 122.264 211.604 127.671 220.521 121.868C220.521 95.1335 198.849 73.4609 172.114 73.4609Z" fill="#02394A" fill-opacity="0.96"/>
<path d="M172.114 169.162C198.848 169.162 220.521 147.87 220.521 121.604C199.856 125.547 191.05 119.947 170.557 113.799C147.91 107.005 127.529 119.036 123.707 121.604C123.707 147.87 145.379 169.162 172.114 169.162Z" fill="#132332"/>
<mask id="mask0_437_26577" style="mask-type:alpha" maskUnits="userSpaceOnUse" x="139" y="111" width="66" height="19">
<path fill-rule="evenodd" clip-rule="evenodd" d="M139.56 120.626V129.574H141.209H142.858V127.395V125.217L145.221 123.191C146.52 122.076 147.676 121.194 147.791 121.23C147.905 121.265 149.436 123.157 151.194 125.434L154.39 129.574H156.37H158.35L161.202 124.324C162.77 121.436 164.119 119.007 164.198 118.926C164.278 118.844 165.651 121.186 167.248 124.13L170.152 129.483L172.048 129.535C173.125 129.565 173.915 129.516 173.876 129.422C173.397 128.241 164.306 111.874 164.19 111.984C164.102 112.067 162.313 115.298 160.213 119.165C158.114 123.032 156.341 126.25 156.273 126.317C156.125 126.464 150.523 119.226 150.523 118.888C150.523 118.704 153.83 115.766 158.56 111.746C158.605 111.709 157.513 111.678 156.135 111.679L153.628 111.68L148.423 116.153C145.56 118.613 143.137 120.626 143.038 120.626C142.933 120.626 142.858 118.777 142.858 116.152V111.678H141.209H139.56V120.626ZM170.219 113.321V114.965H174.1H177.981V122.269V129.574H179.728H181.474V122.269V114.965H185.355H189.236V113.321V111.678H179.728H170.219V113.321ZM193.776 114.375C193.018 115.754 190.851 119.738 188.96 123.228L185.523 129.574L187.428 129.571L189.333 129.568L192.244 124.187C193.845 121.228 195.198 118.807 195.252 118.807C195.305 118.808 196.658 121.23 198.258 124.191L201.168 129.574H203.057H204.947L201.934 124.05C200.277 121.012 198.119 117.026 197.138 115.193C196.157 113.36 195.309 111.862 195.254 111.864C195.2 111.866 194.534 112.996 193.776 114.375Z" fill="#F82A08"/>
</mask>
<g mask="url(#mask0_437_26577)">
<g opacity="0.78">
<g style="mix-blend-mode:color-burn">
<rect width="250.878" height="140.506" transform="matrix(-0.999837 0.0180749 -0.0204086 -0.999792 299.903 209.006)" fill="#F82A08"/>
<path d="M291.804 106.697C291.804 106.697 268.744 84.0736 243.311 88.2601C217.879 92.4465 194.353 103.229 167.661 88.5782C140.969 73.9272 118.978 74.9429 98.6376 82.2659C78.2968 89.5889 64.1973 82.7239 64.1973 82.7239L54.1306 184.3L279.028 204.027L291.804 106.697Z" fill="#F82A08"/>
</g>
<path d="M291.804 106.699C291.804 106.699 268.744 84.0756 243.311 88.262C217.879 92.4485 194.353 103.231 167.661 88.5801C140.969 73.9291 118.978 74.9448 98.6376 82.2678C78.2968 89.5908 64.1973 82.7259 64.1973 82.7259L54.1306 184.302L279.028 204.029L291.804 106.699Z" fill="#F82A08"/>
<g style="mix-blend-mode:color-burn" opacity="0.5">
<rect width="242.01" height="130.16" transform="matrix(-0.999744 0.022197 -0.0157399 -0.999865 306.644 200.246)" fill="#F82A08"/>
<path d="M72.7508 197.865L70.9413 82.9212C70.9413 82.9212 94.9738 99.7302 122.112 95.431C149.25 91.1319 145.697 83.8081 195.389 101.777C245.081 119.746 257.937 82.4517 296.861 91.5511L298.456 192.854L72.7508 197.865Z" fill="#F82A08"/>
</g>
<path d="M72.7509 197.863L70.9415 82.9192C70.9415 82.9192 94.9739 99.7282 122.112 95.4291C149.25 91.1299 145.697 83.8062 195.389 101.775C245.081 119.744 257.937 82.4497 296.861 91.5492L298.456 192.852L72.7509 197.863Z" fill="#F82A08"/>
<g style="mix-blend-mode:color-burn" opacity="0.3">
<rect width="235.759" height="126.278" transform="matrix(-0.999837 0.0180749 -0.0204086 -0.999792 290.037 211.852)" fill="#F82A08"/>
<path d="M273.535 200.952L275.82 104.546C275.82 104.546 271.147 98.3245 258.458 99.6567C245.768 100.989 227.695 137.653 202.633 128.069C177.571 118.485 173.073 90.9497 141.476 102.016C109.88 113.083 86.6923 125.384 67.8727 118.333L66.0309 196.636L273.535 200.952Z" fill="#F82A08"/>
</g>
<path d="M273.535 200.952L275.82 104.546C275.82 104.546 271.147 98.3245 258.458 99.6567C245.768 100.989 227.695 137.653 202.633 128.069C177.571 118.485 173.073 90.9497 141.476 102.016C109.88 113.083 86.692 125.384 67.8725 118.333L66.0306 196.636L273.535 200.952Z" fill="#F82A08"/>
<g style="mix-blend-mode:color-burn" opacity="0.5">
<rect width="252.768" height="119.608" transform="matrix(-0.999837 0.0180749 -0.0204086 -0.999792 292.445 214.031)" fill="#F82A08"/>
<path d="M272.821 128.899C266.033 120.497 251.367 114.1 227.656 128.119C203.946 142.138 192.088 133.289 183.654 122.244C175.221 111.198 163.789 107.95 124.115 128.657C84.441 149.364 78.8727 139.334 64.6681 139.591C50.4634 139.847 58.6688 201.514 58.6688 201.514L273.907 197.623L272.821 128.899Z" fill="#F82A08"/>
</g>
<path d="M272.82 128.897C266.033 120.495 251.367 114.098 227.656 128.117C203.946 142.136 192.088 133.287 183.654 122.242C175.22 111.196 163.789 107.948 124.115 128.655C84.4408 149.362 78.8725 139.332 64.6678 139.589C50.4632 139.845 58.6686 201.512 58.6686 201.512L273.907 197.621L272.82 128.897Z" fill="#F82A08"/>
</g>
</g>
<mask id="mask1_437_26577" style="mask-type:alpha" maskUnits="userSpaceOnUse" x="139" y="111" width="66" height="19">
<path fill-rule="evenodd" clip-rule="evenodd" d="M139.56 120.626V129.574H141.209H142.858V127.395V125.217L145.221 123.191C146.52 122.076 147.676 121.194 147.791 121.23C147.905 121.265 149.436 123.157 151.194 125.434L154.39 129.574H156.37H158.35L161.202 124.324C162.77 121.436 164.119 119.007 164.198 118.926C164.278 118.844 165.651 121.186 167.248 124.13L170.152 129.483L172.048 129.535C173.125 129.565 173.915 129.516 173.876 129.422C173.397 128.241 164.306 111.874 164.19 111.984C164.102 112.067 162.313 115.298 160.213 119.165C158.114 123.032 156.341 126.25 156.273 126.317C156.125 126.464 150.523 119.226 150.523 118.888C150.523 118.704 153.83 115.766 158.56 111.746C158.605 111.709 157.513 111.678 156.135 111.679L153.628 111.68L148.423 116.153C145.56 118.613 143.137 120.626 143.038 120.626C142.933 120.626 142.858 118.777 142.858 116.152V111.678H141.209H139.56V120.626ZM170.219 113.321V114.965H174.1H177.981V122.269V129.574H179.728H181.474V122.269V114.965H185.355H189.236V113.321V111.678H179.728H170.219V113.321ZM193.776 114.375C193.018 115.754 190.851 119.738 188.96 123.228L185.523 129.574L187.428 129.571L189.333 129.568L192.244 124.187C193.845 121.228 195.198 118.807 195.252 118.807C195.305 118.808 196.658 121.23 198.258 124.191L201.168 129.574H203.057H204.947L201.934 124.05C200.277 121.012 198.119 117.026 197.138 115.193C196.157 113.36 195.309 111.862 195.254 111.864C195.2 111.866 194.534 112.996 193.776 114.375Z" fill="#F82A08"/>
</mask>
<g mask="url(#mask1_437_26577)">
<g opacity="0.78">
<g style="mix-blend-mode:color-burn">
<rect width="250.878" height="140.506" transform="matrix(-0.999837 0.0180749 -0.0204086 -0.999792 299.903 209.006)" fill="#F82A08"/>
<path d="M291.804 106.697C291.804 106.697 268.744 84.0736 243.311 88.2601C217.879 92.4465 194.353 103.229 167.661 88.5782C140.969 73.9272 118.978 74.9429 98.6376 82.2659C78.2968 89.5889 64.1973 82.7239 64.1973 82.7239L54.1306 184.3L279.028 204.027L291.804 106.697Z" fill="#F82A08"/>
</g>
<path d="M291.804 106.699C291.804 106.699 268.744 84.0756 243.311 88.262C217.879 92.4485 194.353 103.231 167.661 88.5801C140.969 73.9291 118.978 74.9448 98.6376 82.2678C78.2968 89.5908 64.1973 82.7259 64.1973 82.7259L54.1306 184.302L279.028 204.029L291.804 106.699Z" fill="#F82A08"/>
<g style="mix-blend-mode:color-burn" opacity="0.5">
<rect width="242.01" height="130.16" transform="matrix(-0.999744 0.022197 -0.0157399 -0.999865 306.644 200.246)" fill="#F82A08"/>
<path d="M72.7508 197.865L70.9413 82.9212C70.9413 82.9212 94.9738 99.7302 122.112 95.431C149.25 91.1319 145.697 83.8081 195.389 101.777C245.081 119.746 257.937 82.4517 296.861 91.5511L298.456 192.854L72.7508 197.865Z" fill="#F82A08"/>
</g>
<path d="M72.7509 197.863L70.9415 82.9192C70.9415 82.9192 94.9739 99.7282 122.112 95.4291C149.25 91.1299 145.697 83.8062 195.389 101.775C245.081 119.744 257.937 82.4497 296.861 91.5492L298.456 192.852L72.7509 197.863Z" fill="#F82A08"/>
<g style="mix-blend-mode:color-burn" opacity="0.3">
<rect width="235.759" height="126.278" transform="matrix(-0.999837 0.0180749 -0.0204086 -0.999792 290.037 211.852)" fill="#F82A08"/>
<path d="M273.535 200.952L275.82 104.546C275.82 104.546 271.147 98.3245 258.458 99.6567C245.768 100.989 227.695 137.653 202.633 128.069C177.571 118.485 173.073 90.9497 141.476 102.016C109.88 113.083 86.6923 125.384 67.8727 118.333L66.0309 196.636L273.535 200.952Z" fill="#F82A08"/>
</g>
<path d="M273.535 200.952L275.82 104.546C275.82 104.546 271.147 98.3245 258.458 99.6567C245.768 100.989 227.695 137.653 202.633 128.069C177.571 118.485 173.073 90.9497 141.476 102.016C109.88 113.083 86.692 125.384 67.8725 118.333L66.0306 196.636L273.535 200.952Z" fill="#F82A08"/>
<g style="mix-blend-mode:color-burn" opacity="0.5">
<rect width="252.768" height="119.608" transform="matrix(-0.999837 0.0180749 -0.0204086 -0.999792 292.445 214.031)" fill="#F82A08"/>
<path d="M272.821 128.899C266.033 120.497 251.367 114.1 227.656 128.119C203.946 142.138 192.088 133.289 183.654 122.244C175.221 111.198 163.789 107.95 124.115 128.657C84.441 149.364 78.8727 139.334 64.6681 139.591C50.4634 139.847 58.6688 201.514 58.6688 201.514L273.907 197.623L272.821 128.899Z" fill="#F82A08"/>
</g>
<path d="M272.82 128.897C266.033 120.495 251.367 114.098 227.656 128.117C203.946 142.136 192.088 133.287 183.654 122.242C175.22 111.196 163.789 107.948 124.115 128.655C84.4408 149.362 78.8725 139.332 64.6678 139.589C50.4632 139.845 58.6686 201.512 58.6686 201.512L273.907 197.621L272.82 128.897Z" fill="#F82A08"/>
</g>
</g>
<path d="M146.963 146.992V140.816H150.98V141.754H148.082V143.431H150.772V144.368H148.082V146.054H151.004V146.992H146.963ZM153.056 140.816L154.416 143.078H154.464L155.831 140.816H157.106L155.203 143.904L157.136 146.992H155.84L154.464 144.745H154.416L153.041 146.992H151.75L153.701 143.904L151.774 140.816H153.056ZM157.985 146.992V140.816H162.002V141.754H159.104V143.431H161.794V144.368H159.104V146.054H162.026V146.992H157.985ZM168.43 142.9H167.302C167.27 142.715 167.21 142.551 167.124 142.408C167.038 142.263 166.93 142.141 166.801 142.04C166.673 141.94 166.526 141.864 166.361 141.814C166.198 141.762 166.022 141.736 165.833 141.736C165.497 141.736 165.2 141.82 164.941 141.989C164.681 142.156 164.478 142.401 164.331 142.725C164.185 143.047 164.111 143.44 164.111 143.904C164.111 144.376 164.185 144.775 164.331 145.098C164.48 145.42 164.683 145.663 164.941 145.828C165.2 145.991 165.496 146.072 165.83 146.072C166.015 146.072 166.188 146.048 166.349 146C166.512 145.95 166.658 145.876 166.786 145.78C166.917 145.683 167.027 145.565 167.115 145.424C167.205 145.283 167.268 145.122 167.302 144.941L168.43 144.947C168.388 145.241 168.296 145.516 168.155 145.774C168.017 146.031 167.835 146.258 167.61 146.455C167.384 146.65 167.121 146.803 166.819 146.914C166.518 147.022 166.183 147.077 165.815 147.077C165.272 147.077 164.788 146.951 164.362 146.7C163.935 146.448 163.6 146.085 163.354 145.611C163.109 145.136 162.986 144.567 162.986 143.904C162.986 143.239 163.11 142.67 163.357 142.197C163.605 141.723 163.941 141.36 164.368 141.108C164.794 140.857 165.276 140.731 165.815 140.731C166.159 140.731 166.479 140.78 166.774 140.876C167.07 140.973 167.333 141.114 167.564 141.301C167.796 141.486 167.986 141.714 168.134 141.983C168.285 142.25 168.384 142.556 168.43 142.9ZM173.348 140.816H174.467V144.851C174.467 145.293 174.362 145.682 174.153 146.018C173.946 146.354 173.654 146.616 173.278 146.805C172.903 146.992 172.463 147.086 171.961 147.086C171.456 147.086 171.016 146.992 170.64 146.805C170.264 146.616 169.972 146.354 169.765 146.018C169.558 145.682 169.454 145.293 169.454 144.851V140.816H170.573V144.757C170.573 145.015 170.63 145.244 170.742 145.445C170.857 145.646 171.018 145.804 171.225 145.919C171.432 146.031 171.677 146.087 171.961 146.087C172.244 146.087 172.489 146.031 172.696 145.919C172.906 145.804 173.066 145.646 173.179 145.445C173.292 145.244 173.348 145.015 173.348 144.757V140.816ZM175.411 141.754V140.816H180.339V141.754H178.43V146.992H177.32V141.754H175.411ZM182.408 140.816V146.992H181.289V140.816H182.408ZM189.139 143.904C189.139 144.57 189.014 145.139 188.765 145.614C188.517 146.086 188.18 146.448 187.751 146.7C187.325 146.951 186.841 147.077 186.301 147.077C185.76 147.077 185.275 146.951 184.847 146.7C184.421 146.446 184.083 146.083 183.834 145.611C183.586 145.136 183.463 144.567 183.463 143.904C183.463 143.239 183.586 142.67 183.834 142.197C184.083 141.723 184.421 141.36 184.847 141.108C185.275 140.857 185.76 140.731 186.301 140.731C186.841 140.731 187.325 140.857 187.751 141.108C188.18 141.36 188.517 141.723 188.765 142.197C189.014 142.67 189.139 143.239 189.139 143.904ZM188.014 143.904C188.014 143.436 187.94 143.04 187.793 142.719C187.649 142.395 187.448 142.151 187.19 141.986C186.933 141.819 186.636 141.736 186.301 141.736C185.965 141.736 185.668 141.819 185.411 141.986C185.154 142.151 184.952 142.395 184.805 142.719C184.66 143.04 184.588 143.436 184.588 143.904C184.588 144.372 184.66 144.769 184.805 145.092C184.952 145.414 185.154 145.658 185.411 145.825C185.668 145.99 185.965 146.072 186.301 146.072C186.636 146.072 186.933 145.99 187.19 145.825C187.448 145.658 187.649 145.414 187.793 145.092C187.94 144.769 188.014 144.372 188.014 143.904ZM195.272 140.816V146.992H194.277L191.366 142.785H191.315V146.992H190.196V140.816H191.198L194.105 145.026H194.159V140.816H195.272Z" fill="#8AE7C1"/>
<path d="M152.018 93.5411C151.99 93.2777 151.871 93.0726 151.662 92.9259C151.455 92.7791 151.185 92.7057 150.854 92.7057C150.62 92.7057 150.42 92.7409 150.254 92.8113C150.087 92.8816 149.959 92.9771 149.871 93.0978C149.782 93.2184 149.737 93.3561 149.735 93.5109C149.735 93.6396 149.764 93.7512 149.822 93.8457C149.883 93.9402 149.964 94.0206 150.067 94.0869C150.169 94.1513 150.283 94.2056 150.407 94.2498C150.532 94.294 150.658 94.3312 150.784 94.3614L151.363 94.5061C151.597 94.5604 151.821 94.6338 152.036 94.7263C152.253 94.8188 152.447 94.9354 152.618 95.0761C152.791 95.2169 152.928 95.3867 153.028 95.5858C153.129 95.7848 153.179 96.0181 153.179 96.2855C153.179 96.6473 153.086 96.966 152.901 97.2415C152.716 97.5149 152.449 97.729 152.099 97.8838C151.751 98.0366 151.33 98.113 150.836 98.113C150.355 98.113 149.938 98.0386 149.584 97.8899C149.232 97.7411 148.957 97.5239 148.758 97.2384C148.561 96.9529 148.454 96.6051 148.438 96.195H149.539C149.555 96.4101 149.621 96.589 149.738 96.7318C149.854 96.8745 150.006 96.9811 150.193 97.0515C150.382 97.1218 150.593 97.157 150.827 97.157C151.07 97.157 151.283 97.1208 151.466 97.0484C151.651 96.9741 151.796 96.8715 151.9 96.7408C152.005 96.6081 152.058 96.4533 152.06 96.2764C152.058 96.1156 152.011 95.9829 151.918 95.8783C151.826 95.7718 151.696 95.6833 151.529 95.6129C151.364 95.5406 151.171 95.4762 150.95 95.4199L150.247 95.239C149.739 95.1083 149.337 94.9103 149.041 94.6449C148.748 94.3775 148.601 94.0226 148.601 93.5803C148.601 93.2164 148.699 92.8977 148.896 92.6243C149.095 92.3509 149.366 92.1387 149.708 91.988C150.049 91.8352 150.436 91.7588 150.869 91.7588C151.307 91.7588 151.691 91.8352 152.021 91.988C152.353 92.1387 152.613 92.3488 152.802 92.6183C152.991 92.8857 153.088 93.1933 153.094 93.5411H152.018ZM153.905 92.7811V91.8432H158.833V92.7811H156.924V98.0195H155.814V92.7811H153.905ZM159.783 98.0195V91.8432H162.099C162.573 91.8432 162.971 91.9256 163.293 92.0905C163.617 92.2554 163.861 92.4866 164.026 92.7841C164.193 93.0797 164.276 93.4245 164.276 93.8185C164.276 94.2146 164.192 94.5584 164.023 94.8499C163.856 95.1395 163.61 95.3636 163.284 95.5225C162.958 95.6793 162.558 95.7577 162.084 95.7577H160.434V94.8288H161.933C162.21 94.8288 162.438 94.7906 162.614 94.7142C162.791 94.6358 162.922 94.5222 163.007 94.3734C163.093 94.2227 163.136 94.0377 163.136 93.8185C163.136 93.5994 163.093 93.4124 163.007 93.2576C162.92 93.1008 162.788 92.9822 162.611 92.9017C162.435 92.8193 162.206 92.7781 161.927 92.7781H160.902V98.0195H159.783ZM162.973 95.2209L164.502 98.0195H163.254L161.752 95.2209H162.973ZM166.099 98.0195H164.905L167.079 91.8432H168.461L170.638 98.0195H169.444L167.794 93.1098H167.746L166.099 98.0195ZM166.138 95.5979H169.395V96.4966H166.138V95.5979ZM170.434 92.7811V91.8432H175.361V92.7811H173.452V98.0195H172.343V92.7811H170.434ZM176.311 98.0195V91.8432H180.328V92.7811H177.43V94.4579H180.12V95.3958H177.43V97.0816H180.353V98.0195H176.311ZM185.608 93.8155C185.557 93.6527 185.488 93.5069 185.4 93.3782C185.313 93.2475 185.209 93.136 185.086 93.0435C184.965 92.951 184.827 92.8816 184.67 92.8354C184.513 92.7871 184.342 92.763 184.157 92.763C183.825 92.763 183.53 92.8464 183.27 93.0133C183.011 93.1802 182.807 93.4255 182.658 93.7492C182.511 94.0709 182.438 94.4629 182.438 94.9253C182.438 95.3918 182.511 95.7868 182.658 96.1105C182.805 96.4342 183.009 96.6805 183.27 96.8494C183.532 97.0163 183.835 97.0997 184.181 97.0997C184.495 97.0997 184.766 97.0394 184.995 96.9188C185.227 96.7981 185.405 96.6272 185.529 96.4061C185.654 96.1829 185.716 95.9215 185.716 95.622L185.97 95.6612H184.293V94.7866H186.799V95.5285C186.799 96.0573 186.686 96.5147 186.461 96.9007C186.236 97.2867 185.926 97.5843 185.532 97.7933C185.138 98.0004 184.686 98.104 184.175 98.104C183.606 98.104 183.107 97.9763 182.676 97.721C182.248 97.4636 181.913 97.0987 181.672 96.6262C181.433 96.1518 181.313 95.5888 181.313 94.9374C181.313 94.4388 181.384 93.9935 181.524 93.6014C181.667 93.2093 181.866 92.8766 182.121 92.6032C182.377 92.3277 182.676 92.1186 183.02 91.9759C183.364 91.8311 183.738 91.7588 184.142 91.7588C184.484 91.7588 184.802 91.809 185.098 91.9095C185.394 92.0081 185.656 92.1488 185.885 92.3318C186.116 92.5147 186.306 92.7318 186.455 92.9832C186.604 93.2345 186.701 93.5119 186.748 93.8155H185.608ZM187.226 91.8432H188.49L190.001 94.5755H190.061L191.572 91.8432H192.836L190.589 95.7155V98.0195H189.473V95.7155L187.226 91.8432Z" fill="#8AE7C1"/>
<path d="M168.056 63.9777C168.056 66.0623 169.746 67.7522 171.831 67.7522C173.915 67.7522 175.605 66.0623 175.605 63.9777C175.605 61.8932 173.915 60.2033 171.831 60.2033C169.746 60.2033 168.056 61.8932 168.056 63.9777ZM172.482 64.2559L187.91 28.1629L186.608 27.6066L171.18 63.6996L172.482 64.2559Z" fill="#6EB99A" fill-opacity="0.96"/>
<path d="M8.28337 113.927C8.17279 113.588 8.02703 113.285 7.84608 113.017C7.66848 112.746 7.4557 112.514 7.20774 112.323C6.96312 112.132 6.685 111.987 6.37337 111.886C6.06174 111.786 5.71995 111.735 5.348 111.735C4.73814 111.735 4.18357 111.893 3.68429 112.208C3.18501 112.523 2.78793 112.987 2.49305 113.6C2.19818 114.213 2.05074 114.966 2.05074 115.857C2.05074 116.748 2.19985 117.501 2.49808 118.114C2.79631 118.727 3.20009 119.191 3.70942 119.506C4.21875 119.821 4.79175 119.979 5.42842 119.979C6.01818 119.979 6.53756 119.853 6.98658 119.602C7.43895 119.347 7.79079 118.988 8.0421 118.526C8.29677 118.06 8.42411 117.512 8.42411 116.882L8.80611 116.963H5.70989V115.857H9.63042V116.963C9.63042 117.811 9.44947 118.548 9.08758 119.174C8.72903 119.801 8.2331 120.287 7.59979 120.632C6.96982 120.974 6.24603 121.145 5.42842 121.145C4.51698 121.145 3.71612 120.93 3.02584 120.501C2.33891 120.072 1.80277 119.463 1.41742 118.672C1.03542 117.881 0.844421 116.943 0.844421 115.857C0.844421 115.043 0.953325 114.311 1.17113 113.66C1.39229 113.007 1.70392 112.451 2.10603 111.992C2.50813 111.533 2.98396 111.181 3.5335 110.936C4.08304 110.692 4.68788 110.569 5.348 110.569C5.89084 110.569 6.39682 110.651 6.86595 110.816C7.33842 110.976 7.75896 111.206 8.12755 111.504C8.4995 111.799 8.80946 112.153 9.05742 112.565C9.30539 112.974 9.47628 113.428 9.5701 113.927H8.28337ZM14.7409 121.165C14.0439 121.165 13.4324 120.999 12.9063 120.667C12.3836 120.335 11.9748 119.871 11.6799 119.275C11.3884 118.678 11.2426 117.981 11.2426 117.184C11.2426 116.38 11.3884 115.678 11.6799 115.078C11.9748 114.478 12.3836 114.012 12.9063 113.681C13.4324 113.349 14.0439 113.183 14.7409 113.183C15.4379 113.183 16.0478 113.349 16.5705 113.681C17.0966 114.012 17.5054 114.478 17.7969 115.078C18.0918 115.678 18.2392 116.38 18.2392 117.184C18.2392 117.981 18.0918 118.678 17.7969 119.275C17.5054 119.871 17.0966 120.335 16.5705 120.667C16.0478 120.999 15.4379 121.165 14.7409 121.165ZM14.7409 120.099C15.2704 120.099 15.706 119.963 16.0478 119.692C16.3896 119.421 16.6425 119.064 16.8067 118.621C16.9709 118.179 17.053 117.7 17.053 117.184C17.053 116.668 16.9709 116.187 16.8067 115.741C16.6425 115.296 16.3896 114.935 16.0478 114.661C15.706 114.386 15.2704 114.249 14.7409 114.249C14.2115 114.249 13.7759 114.386 13.4341 114.661C13.0923 114.935 12.8393 115.296 12.6751 115.741C12.5109 116.187 12.4288 116.668 12.4288 117.184C12.4288 117.7 12.5109 118.179 12.6751 118.621C12.8393 119.064 13.0923 119.421 13.4341 119.692C13.7759 119.963 14.2115 120.099 14.7409 120.099ZM22.3219 121.185C21.8326 121.185 21.3886 121.093 20.9899 120.908C20.5911 120.721 20.2745 120.451 20.0399 120.099C19.8054 119.744 19.6881 119.315 19.6881 118.812C19.6881 118.37 19.7752 118.012 19.9494 117.737C20.1237 117.459 20.3566 117.241 20.6481 117.083C20.9396 116.926 21.2613 116.809 21.6132 116.732C21.9683 116.651 22.3252 116.587 22.6838 116.541C23.1529 116.48 23.5332 116.435 23.8247 116.405C24.1196 116.371 24.3341 116.316 24.4681 116.239C24.6055 116.162 24.6742 116.028 24.6742 115.837V115.797C24.6742 115.301 24.5385 114.915 24.267 114.641C23.999 114.366 23.5918 114.228 23.0457 114.228C22.4794 114.228 22.0354 114.352 21.7137 114.6C21.392 114.848 21.1658 115.113 21.0351 115.395L19.9092 114.992C20.1103 114.523 20.3784 114.158 20.7134 113.897C21.0519 113.632 21.4205 113.448 21.8192 113.344C22.2213 113.237 22.6167 113.183 23.0054 113.183C23.2534 113.183 23.5382 113.213 23.8599 113.273C24.185 113.33 24.4983 113.449 24.7998 113.63C25.1048 113.811 25.3578 114.084 25.5588 114.45C25.7599 114.815 25.8604 115.304 25.8604 115.917V121.004H24.6742V119.958H24.6139C24.5334 120.126 24.3994 120.305 24.2118 120.496C24.0241 120.687 23.7745 120.85 23.4628 120.984C23.1512 121.118 22.7709 121.185 22.3219 121.185ZM22.5028 120.119C22.9719 120.119 23.3673 120.027 23.689 119.843C24.0141 119.659 24.2587 119.421 24.4229 119.129C24.5904 118.838 24.6742 118.531 24.6742 118.209V117.124C24.6239 117.184 24.5133 117.239 24.3424 117.289C24.1749 117.336 23.9805 117.378 23.7594 117.415C23.5416 117.449 23.3288 117.479 23.121 117.506C22.9166 117.529 22.7508 117.549 22.6234 117.566C22.3152 117.606 22.027 117.671 21.7589 117.762C21.4942 117.849 21.2797 117.981 21.1155 118.159C20.9547 118.333 20.8743 118.571 20.8743 118.873C20.8743 119.285 21.0268 119.597 21.3317 119.808C21.64 120.015 22.0303 120.119 22.5028 120.119ZM29.2117 110.71V121.004H28.0255V110.71H29.2117ZM36.8529 115.013L35.7874 115.314C35.7203 115.137 35.6215 114.964 35.4908 114.796C35.3635 114.626 35.1892 114.485 34.9681 114.374C34.7469 114.264 34.4638 114.208 34.1186 114.208C33.6462 114.208 33.2524 114.317 32.9374 114.535C32.6258 114.749 32.47 115.023 32.47 115.354C32.47 115.649 32.5772 115.882 32.7917 116.053C33.0061 116.224 33.3412 116.366 33.7969 116.48L34.9429 116.762C35.6332 116.929 36.1476 117.186 36.486 117.531C36.8245 117.873 36.9937 118.313 36.9937 118.853C36.9937 119.295 36.8663 119.69 36.6117 120.039C36.3604 120.387 36.0085 120.662 35.5562 120.863C35.1038 121.064 34.5777 121.165 33.9779 121.165C33.1904 121.165 32.5387 120.994 32.0227 120.652C31.5066 120.31 31.1799 119.811 31.0425 119.154L32.1684 118.873C32.2756 119.288 32.4784 119.6 32.7766 119.808C33.0782 120.015 33.4719 120.119 33.9578 120.119C34.5107 120.119 34.9496 120.002 35.2747 119.767C35.6031 119.53 35.7673 119.245 35.7673 118.913C35.7673 118.645 35.6734 118.42 35.4858 118.239C35.2981 118.055 35.01 117.918 34.6213 117.827L33.3345 117.526C32.6275 117.358 32.1081 117.098 31.7764 116.747C31.448 116.391 31.2838 115.947 31.2838 115.415C31.2838 114.979 31.4061 114.594 31.6507 114.259C31.8987 113.924 32.2354 113.66 32.661 113.469C33.0899 113.278 33.5758 113.183 34.1186 113.183C34.8826 113.183 35.4824 113.351 35.9181 113.686C36.357 114.021 36.6686 114.463 36.8529 115.013Z" fill="black"/>
<path d="M264.304 118.045C264.304 120.129 265.994 121.819 268.079 121.819C270.163 121.819 271.853 120.129 271.853 118.045C271.853 115.96 270.163 114.27 268.079 114.27C265.994 114.27 264.304 115.96 264.304 118.045ZM267.556 118.522L296.006 149.661L297.051 148.707L268.601 117.568L267.556 118.522Z" fill="#6EB99A" fill-opacity="0.96"/>
<path d="M177.324 14V3.70611H180.802C181.609 3.70611 182.27 3.85187 182.782 4.14339C183.298 4.43157 183.68 4.82195 183.928 5.31453C184.176 5.80711 184.3 6.35665 184.3 6.96316C184.3 7.56967 184.176 8.12089 183.928 8.61682C183.684 9.11275 183.305 9.50815 182.792 9.80303C182.28 10.0946 181.623 10.2403 180.822 10.2403H178.329V9.13453H180.782C181.335 9.13453 181.779 9.03903 182.114 8.84803C182.449 8.65703 182.692 8.39901 182.843 8.07397C182.997 7.74559 183.074 7.37532 183.074 6.96316C183.074 6.551 182.997 6.1824 182.843 5.85737C182.692 5.53233 182.447 5.27767 182.109 5.09337C181.77 4.90572 181.321 4.8119 180.762 4.8119H178.57V14H177.324ZM187.334 3.70611V14H186.147V3.70611H187.334ZM191.778 14.1809C191.289 14.1809 190.845 14.0888 190.446 13.9045C190.047 13.7169 189.731 13.4471 189.496 13.0953C189.262 12.7401 189.144 12.3112 189.144 11.8085C189.144 11.3662 189.231 11.0077 189.406 10.7329C189.58 10.4548 189.813 10.237 190.104 10.0795C190.396 9.92198 190.718 9.8047 191.069 9.72763C191.425 9.64721 191.781 9.58354 192.14 9.53663C192.609 9.47632 192.989 9.43108 193.281 9.40092C193.576 9.36741 193.79 9.31212 193.924 9.23505C194.062 9.15798 194.13 9.02395 194.13 8.83295V8.79274C194.13 8.29681 193.995 7.91146 193.723 7.63668C193.455 7.36191 193.048 7.22453 192.502 7.22453C191.936 7.22453 191.492 7.34851 191.17 7.59647C190.848 7.84444 190.622 8.10916 190.491 8.39063L189.365 7.98853C189.567 7.5194 189.835 7.15416 190.17 6.89279C190.508 6.62807 190.877 6.44377 191.275 6.3399C191.678 6.23267 192.073 6.17905 192.462 6.17905C192.71 6.17905 192.994 6.20921 193.316 6.26953C193.641 6.32649 193.954 6.44545 194.256 6.62639C194.561 6.80734 194.814 7.08044 195.015 7.44568C195.216 7.81093 195.317 8.30016 195.317 8.91337V14H194.13V12.9545H194.07C193.99 13.1221 193.856 13.3013 193.668 13.4923C193.48 13.6833 193.231 13.8459 192.919 13.9799C192.607 14.1139 192.227 14.1809 191.778 14.1809ZM191.959 13.1154C192.428 13.1154 192.824 13.0232 193.145 12.8389C193.47 12.6546 193.715 12.4167 193.879 12.1252C194.047 11.8337 194.13 11.5271 194.13 11.2054V10.1197C194.08 10.18 193.97 10.2353 193.799 10.2856C193.631 10.3325 193.437 10.3744 193.216 10.4112C192.998 10.4447 192.785 10.4749 192.577 10.5017C192.373 10.5251 192.207 10.5452 192.08 10.562C191.771 10.6022 191.483 10.6676 191.215 10.758C190.95 10.8451 190.736 10.9775 190.572 11.1551C190.411 11.3294 190.331 11.5673 190.331 11.8688C190.331 12.281 190.483 12.5926 190.788 12.8037C191.096 13.0115 191.487 13.1154 191.959 13.1154ZM198.668 9.35568V14H197.482V6.27958H198.628V7.4859H198.728C198.909 7.09384 199.184 6.77886 199.553 6.54095C199.921 6.29968 200.397 6.17905 200.98 6.17905C201.503 6.17905 201.96 6.28628 202.352 6.50074C202.744 6.71184 203.049 7.03353 203.267 7.46579C203.485 7.8947 203.594 8.43754 203.594 9.09432V14H202.408V9.17474C202.408 8.56823 202.25 8.09575 201.935 7.75732C201.62 7.41553 201.188 7.24463 200.638 7.24463C200.26 7.24463 199.921 7.32673 199.623 7.49092C199.328 7.65511 199.095 7.8947 198.924 8.20968C198.753 8.52467 198.668 8.90667 198.668 9.35568Z" fill="black"/>
<path d="M159.847 197.168C159.847 199.253 161.537 200.942 163.621 200.942C165.706 200.942 167.396 199.253 167.396 197.168C167.396 195.083 165.706 193.394 163.621 193.394C161.537 193.394 159.847 195.083 159.847 197.168ZM162.996 196.837L156.343 209.435L157.595 210.096L164.247 197.498L162.996 196.837Z" fill="#6EB99A" fill-opacity="0.96"/>
<path d="M306.863 147.898L304.049 137.605H305.315L307.467 145.988H307.567L309.759 137.605H311.166L313.357 145.988H313.458L315.609 137.605H316.876L314.061 147.898H312.774L310.502 139.695H310.422L308.15 147.898H306.863ZM320.686 148.059C319.989 148.059 319.377 147.893 318.851 147.562C318.328 147.23 317.92 146.766 317.625 146.169C317.333 145.573 317.187 144.876 317.187 144.078C317.187 143.274 317.333 142.572 317.625 141.972C317.92 141.373 318.328 140.907 318.851 140.575C319.377 140.243 319.989 140.077 320.686 140.077C321.383 140.077 321.993 140.243 322.515 140.575C323.041 140.907 323.45 141.373 323.742 141.972C324.037 142.572 324.184 143.274 324.184 144.078C324.184 144.876 324.037 145.573 323.742 146.169C323.45 146.766 323.041 147.23 322.515 147.562C321.993 147.893 321.383 148.059 320.686 148.059ZM320.686 146.994C321.215 146.994 321.651 146.858 321.993 146.587C322.334 146.315 322.587 145.958 322.752 145.516C322.916 145.074 322.998 144.594 322.998 144.078C322.998 143.562 322.916 143.082 322.752 142.636C322.587 142.19 322.334 141.83 321.993 141.555C321.651 141.28 321.215 141.143 320.686 141.143C320.156 141.143 319.721 141.28 319.379 141.555C319.037 141.83 318.784 142.19 318.62 142.636C318.456 143.082 318.374 143.562 318.374 144.078C318.374 144.594 318.456 145.074 318.62 145.516C318.784 145.958 319.037 146.315 319.379 146.587C319.721 146.858 320.156 146.994 320.686 146.994ZM325.995 147.898V140.178H327.141V141.344H327.221C327.362 140.962 327.617 140.652 327.985 140.414C328.354 140.176 328.769 140.057 329.232 140.057C329.319 140.057 329.428 140.059 329.558 140.062C329.689 140.066 329.788 140.071 329.855 140.077V141.284C329.815 141.274 329.723 141.259 329.579 141.239C329.438 141.215 329.289 141.203 329.131 141.203C328.756 141.203 328.421 141.282 328.126 141.44C327.834 141.594 327.603 141.808 327.432 142.083C327.265 142.354 327.181 142.664 327.181 143.013V147.898H325.995ZM332.367 145.084L332.347 143.616H332.588L335.966 140.178H337.433L333.835 143.817H333.734L332.367 145.084ZM331.261 147.898V137.605H332.447V147.898H331.261ZM336.167 147.898L333.151 144.078L333.995 143.254L337.675 147.898H336.167Z" fill="black"/>
<path d="M89.3596 115.779C89.3596 117.864 91.0494 119.554 93.134 119.554C95.2186 119.554 96.9084 117.864 96.9084 115.779C96.9084 113.695 95.2186 112.005 93.134 112.005C91.0494 112.005 89.3596 113.695 89.3596 115.779ZM93.134 115.072H49.1147V116.487H93.134V115.072Z" fill="#6EB99A" fill-opacity="0.96"/>
<path d="M123.821 229.99V219.696H127.299C128.103 219.696 128.764 219.834 129.28 220.108C129.796 220.38 130.178 220.754 130.426 221.229C130.674 221.705 130.798 222.246 130.798 222.853C130.798 223.459 130.674 223.997 130.426 224.466C130.178 224.935 129.797 225.304 129.285 225.572C128.772 225.837 128.117 225.969 127.319 225.969H124.505V224.843H127.279C127.829 224.843 128.271 224.763 128.606 224.602C128.944 224.441 129.189 224.213 129.34 223.918C129.494 223.62 129.571 223.265 129.571 222.853C129.571 222.441 129.494 222.08 129.34 221.772C129.186 221.464 128.939 221.226 128.601 221.058C128.263 220.888 127.815 220.802 127.259 220.802H125.068V229.99H123.821ZM128.666 225.366L131.2 229.99H129.752L127.259 225.366H128.666ZM135.868 230.151C135.124 230.151 134.482 229.987 133.943 229.658C133.407 229.327 132.993 228.864 132.701 228.271C132.413 227.675 132.269 226.981 132.269 226.19C132.269 225.4 132.413 224.703 132.701 224.099C132.993 223.493 133.398 223.02 133.918 222.682C134.44 222.34 135.05 222.169 135.747 222.169C136.149 222.169 136.546 222.236 136.938 222.37C137.33 222.504 137.687 222.722 138.009 223.024C138.331 223.322 138.587 223.717 138.778 224.21C138.969 224.703 139.065 225.309 139.065 226.029V226.532H133.113V225.507H137.858C137.858 225.071 137.771 224.682 137.597 224.341C137.426 223.999 137.181 223.729 136.863 223.531C136.548 223.334 136.176 223.235 135.747 223.235C135.275 223.235 134.866 223.352 134.521 223.587C134.179 223.818 133.916 224.119 133.732 224.491C133.547 224.863 133.455 225.262 133.455 225.688V226.371C133.455 226.954 133.556 227.449 133.757 227.854C133.961 228.256 134.244 228.563 134.606 228.774C134.968 228.982 135.389 229.085 135.868 229.085C136.179 229.085 136.461 229.042 136.712 228.955C136.967 228.864 137.186 228.73 137.371 228.553C137.555 228.372 137.697 228.147 137.798 227.879L138.944 228.201C138.823 228.59 138.621 228.931 138.336 229.226C138.051 229.518 137.699 229.746 137.28 229.91C136.861 230.071 136.391 230.151 135.868 230.151ZM146.338 223.999L145.272 224.3C145.205 224.123 145.106 223.95 144.975 223.783C144.848 223.612 144.674 223.471 144.453 223.361C144.232 223.25 143.948 223.195 143.603 223.195C143.131 223.195 142.737 223.304 142.422 223.521C142.11 223.736 141.955 224.009 141.955 224.341C141.955 224.636 142.062 224.868 142.276 225.039C142.491 225.21 142.826 225.353 143.282 225.467L144.428 225.748C145.118 225.916 145.632 226.172 145.971 226.517C146.309 226.859 146.478 227.299 146.478 227.839C146.478 228.281 146.351 228.677 146.096 229.025C145.845 229.374 145.493 229.648 145.041 229.849C144.588 230.051 144.062 230.151 143.463 230.151C142.675 230.151 142.023 229.98 141.507 229.638C140.991 229.297 140.665 228.797 140.527 228.141L141.653 227.859C141.76 228.275 141.963 228.586 142.261 228.794C142.563 229.002 142.957 229.106 143.442 229.106C143.995 229.106 144.434 228.988 144.759 228.754C145.088 228.516 145.252 228.231 145.252 227.899C145.252 227.631 145.158 227.407 144.97 227.226C144.783 227.041 144.495 226.904 144.106 226.814L142.819 226.512C142.112 226.344 141.593 226.085 141.261 225.733C140.933 225.378 140.768 224.934 140.768 224.401C140.768 223.965 140.891 223.58 141.135 223.245C141.383 222.91 141.72 222.647 142.146 222.456C142.575 222.265 143.06 222.169 143.603 222.169C144.367 222.169 144.967 222.337 145.403 222.672C145.842 223.007 146.153 223.449 146.338 223.999ZM153.129 226.834V222.27H154.316V229.99H153.129V228.683H153.049C152.868 229.075 152.587 229.409 152.205 229.684C151.823 229.955 151.34 230.091 150.757 230.091C150.274 230.091 149.846 229.985 149.47 229.774C149.095 229.56 148.8 229.238 148.586 228.809C148.371 228.377 148.264 227.832 148.264 227.175V222.27H149.45V227.095C149.45 227.658 149.608 228.107 149.923 228.442C150.241 228.777 150.646 228.945 151.139 228.945C151.434 228.945 151.734 228.869 152.039 228.719C152.347 228.568 152.605 228.337 152.813 228.025C153.024 227.713 153.129 227.316 153.129 226.834ZM157.674 219.696V229.99H156.488V219.696H157.674ZM163.205 222.27V223.275H159.204V222.27H163.205ZM160.37 220.42H161.556V227.779C161.556 228.114 161.605 228.365 161.702 228.533C161.802 228.697 161.93 228.807 162.084 228.864C162.241 228.918 162.407 228.945 162.581 228.945C162.712 228.945 162.819 228.938 162.903 228.925C162.987 228.908 163.054 228.894 163.104 228.884L163.345 229.95C163.265 229.98 163.153 230.01 163.009 230.04C162.865 230.074 162.682 230.091 162.461 230.091C162.126 230.091 161.797 230.019 161.476 229.875C161.157 229.731 160.893 229.511 160.681 229.216C160.474 228.921 160.37 228.549 160.37 228.1V220.42ZM170.319 223.999L169.254 224.3C169.187 224.123 169.088 223.95 168.957 223.783C168.83 223.612 168.656 223.471 168.435 223.361C168.213 223.25 167.93 223.195 167.585 223.195C167.113 223.195 166.719 223.304 166.404 223.521C166.092 223.736 165.936 224.009 165.936 224.341C165.936 224.636 166.044 224.868 166.258 225.039C166.473 225.21 166.808 225.353 167.263 225.467L168.409 225.748C169.1 225.916 169.614 226.172 169.953 226.517C170.291 226.859 170.46 227.299 170.46 227.839C170.46 228.281 170.333 228.677 170.078 229.025C169.827 229.374 169.475 229.648 169.023 229.849C168.57 230.051 168.044 230.151 167.444 230.151C166.657 230.151 166.005 229.98 165.489 229.638C164.973 229.297 164.646 228.797 164.509 228.141L165.635 227.859C165.742 228.275 165.945 228.586 166.243 228.794C166.545 229.002 166.938 229.106 167.424 229.106C167.977 229.106 168.416 228.988 168.741 228.754C169.07 228.516 169.234 228.231 169.234 227.899C169.234 227.631 169.14 227.407 168.952 227.226C168.765 227.041 168.476 226.904 168.088 226.814L166.801 226.512C166.094 226.344 165.575 226.085 165.243 225.733C164.914 225.378 164.75 224.934 164.75 224.401C164.75 223.965 164.873 223.58 165.117 223.245C165.365 222.91 165.702 222.647 166.127 222.456C166.556 222.265 167.042 222.169 167.585 222.169C168.349 222.169 168.949 222.337 169.385 222.672C169.824 223.007 170.135 223.449 170.319 223.999Z" fill="black"/>
<defs>
<linearGradient id="paint0_linear_437_26577" x1="157.883" y1="45.0881" x2="185.496" y2="197.232" gradientUnits="userSpaceOnUse">
<stop offset="0.180048" stop-color="#02394A" stop-opacity="0.96"/>
<stop offset="1" stop-color="#8AE7C1"/>
</linearGradient>
</defs>
</svg>
