<svg width="64" height="65" viewBox="0 0 64 65" fill="none" xmlns="http://www.w3.org/2000/svg">
<path d="M18.0623 56.4479C16.6612 56.9711 15.1395 57.0818 13.6775 56.7667C12.2155 56.4516 10.8745 55.724 9.81337 54.6701C9.0821 53.9478 8.50253 53.0866 8.10871 52.1371C7.71488 51.1877 7.51474 50.1691 7.52004 49.1412C7.5279 48.4188 7.63558 47.7009 7.84004 47.0079C7.06934 45.5666 6.47257 44.0389 6.06226 42.4568C4.42848 44.7103 3.67741 47.4844 3.95119 50.2543C4.22497 53.0243 5.5046 55.5977 7.54793 57.4877C9.59125 59.3778 12.2565 60.4532 15.0393 60.5106C17.8221 60.5679 20.5295 59.6032 22.6489 57.799C21.0726 57.5288 19.5333 57.0753 18.0623 56.4479ZM32.7289 49.2835C30.1604 50.7151 27.1954 51.2709 24.2827 50.8667C21.37 50.4626 18.6684 49.1204 16.5867 47.0435C14.5073 44.9711 13.1615 42.2764 12.7539 39.3691C12.3464 36.4618 12.8994 33.501 14.3289 30.9368C13.9396 29.2744 13.7192 27.5768 13.6712 25.8701C10.6461 29.0975 8.99536 33.3753 9.06835 37.7982C9.14135 42.2211 10.9323 46.4421 14.0623 49.5679C17.2007 52.6879 21.4254 54.4714 25.8501 54.5443C30.2749 54.6172 34.5561 52.9739 37.7956 49.959C36.0885 49.9027 34.3912 49.6764 32.7289 49.2835Z" fill="url(#paint0_linear_437_30284)"/>
<path d="M38.5065 46.6697C33.5307 46.6623 28.7114 44.9301 24.8694 41.7683C21.0274 38.6065 18.4003 34.2105 17.4356 29.3292C16.4708 24.4478 17.2282 19.383 19.5786 14.9974C21.929 10.6117 25.7271 7.17651 30.326 5.27687C34.9248 3.37722 40.04 3.13061 44.8003 4.57904C49.5606 6.02748 53.6716 9.08137 56.4329 13.2206C59.1943 17.3598 60.4354 22.3282 59.9448 27.2798C59.4541 32.2313 57.2621 36.8596 53.742 40.3763C51.7404 42.3747 49.3646 43.9591 46.7504 45.0389C44.1363 46.1188 41.3349 46.6729 38.5065 46.6697ZM38.5065 7.18522C36.1447 7.18288 33.8056 7.64605 31.6229 8.54825C29.4402 9.45045 27.4568 10.774 25.7859 12.4432C24.1151 14.1124 22.7896 16.0946 21.8852 18.2763C20.9809 20.4581 20.5154 22.7968 20.5154 25.1586C20.5157 27.5227 20.9876 29.863 21.9033 32.0425C22.8191 34.222 24.1604 36.197 25.8487 37.8519C29.2226 41.2249 33.798 43.1197 38.5687 43.1197C43.3394 43.1197 47.9148 41.2249 51.2887 37.8519C53.8014 35.333 55.5099 32.1251 56.198 28.6345C56.8861 25.1439 56.5227 21.5276 55.1539 18.2436C53.7851 14.9596 51.4725 12.1558 48.509 10.1872C45.5454 8.2186 42.0643 7.17383 38.5065 7.18522Z" fill="url(#paint1_linear_437_30284)"/>
<defs>
<linearGradient id="paint0_linear_437_30284" x1="3.91828" y1="60.2301" x2="42.1894" y2="25.7472" gradientUnits="userSpaceOnUse">
<stop offset="0.0729167" stop-color="#F54A2E"/>
<stop offset="0.348958" stop-color="#99D1AD"/>
<stop offset="0.484375" stop-color="#8AE7C1"/>
<stop offset="0.630208" stop-color="#7BDBC6"/>
<stop offset="0.765625" stop-color="#2DB1C3"/>
<stop offset="0.90625" stop-color="#019AC1"/>
</linearGradient>
<linearGradient id="paint1_linear_437_30284" x1="17.0556" y1="46.3183" x2="64.6798" y2="2.46728" gradientUnits="userSpaceOnUse">
<stop offset="0.0729167" stop-color="#F54A2E"/>
<stop offset="0.348958" stop-color="#99D1AD"/>
<stop offset="0.484375" stop-color="#8AE7C1"/>
<stop offset="0.630208" stop-color="#7BDBC6"/>
<stop offset="0.765625" stop-color="#2DB1C3"/>
<stop offset="0.90625" stop-color="#019AC1"/>
</linearGradient>
</defs>
</svg>
