<svg width="46" height="46" viewBox="0 0 46 46" fill="none" xmlns="http://www.w3.org/2000/svg">
<path d="M37.3999 45.7939H30.9999C30.4281 45.7939 29.8999 45.4889 29.6142 44.9939C29.3285 44.4989 29.3285 43.8889 29.6142 43.3939C29.8999 42.8989 30.4281 42.5939 30.9999 42.5939H37.3999C38.6731 42.5939 39.8938 42.0882 40.7942 41.1882C41.6942 40.2878 42.1999 39.0672 42.1999 37.7939V31.3939C42.1999 30.8221 42.5049 30.2939 42.9999 30.0082C43.4949 29.7225 44.1049 29.7225 44.5999 30.0082C45.0949 30.2939 45.3999 30.8222 45.3999 31.3939V37.7939C45.3999 39.9157 44.557 41.9504 43.0567 43.4507C41.5563 44.951 39.5217 45.7939 37.3999 45.7939Z" fill="url(#paint0_linear_437_29901)"/>
<path d="M43.7999 16.9941C43.3756 16.9941 42.9684 16.8256 42.6685 16.5256C42.3685 16.2256 42.1999 15.8184 42.1999 15.3941V8.99414C42.1999 7.72091 41.6942 6.50024 40.7942 5.59986C39.8938 4.69985 38.6731 4.19414 37.3999 4.19414H30.9999C30.4281 4.19414 29.8999 3.88914 29.6142 3.39414C29.3285 2.89914 29.3285 2.28914 29.6142 1.79414C29.8999 1.29915 30.4281 0.994141 30.9999 0.994141H37.3999C39.5217 0.994141 41.5563 1.837 43.0567 3.33736C44.557 4.83773 45.3999 6.87236 45.3999 8.99414V15.3941C45.3999 15.8184 45.2313 16.2256 44.9313 16.5256C44.6313 16.8256 44.2242 16.9941 43.7999 16.9941Z" fill="url(#paint1_linear_437_29901)"/>
<path d="M2.2001 16.9941C1.77581 16.9941 1.36866 16.8256 1.06867 16.5256C0.768674 16.2256 0.600098 15.8184 0.600098 15.3941V8.99414C0.600098 6.87236 1.44296 4.83771 2.94332 3.33736C4.44368 1.83702 6.47831 0.994141 8.6001 0.994141H15.0001C15.5719 0.994141 16.1001 1.29914 16.3858 1.79414C16.6715 2.28914 16.6715 2.89915 16.3858 3.39414C16.1001 3.88914 15.5719 4.19414 15.0001 4.19414H8.6001C7.32686 4.19414 6.1062 4.69985 5.20581 5.59986C4.30581 6.50022 3.8001 7.72091 3.8001 8.99414V15.3941C3.8001 15.8184 3.63152 16.2256 3.33153 16.5256C3.03153 16.8256 2.62438 16.9941 2.2001 16.9941Z" fill="url(#paint2_linear_437_29901)"/>
<path d="M15.0001 45.7939H8.6001C6.47831 45.7939 4.44366 44.9511 2.94332 43.4507C1.44298 41.9503 0.600098 39.9157 0.600098 37.7939V31.3939C0.600098 30.8221 0.905094 30.2939 1.4001 30.0082C1.8951 29.7225 2.5051 29.7225 3.0001 30.0082C3.49509 30.2939 3.8001 30.8222 3.8001 31.3939V37.7939C3.8001 39.0672 4.30581 40.2878 5.20581 41.1882C6.10617 42.0882 7.32686 42.5939 8.6001 42.5939H15.0001C15.5719 42.5939 16.1001 42.8989 16.3858 43.3939C16.6715 43.8889 16.6715 44.4989 16.3858 44.9939C16.1001 45.4889 15.5719 45.7939 15.0001 45.7939Z" fill="url(#paint3_linear_437_29901)"/>
<path d="M19.8001 16.9941H26.2001C27.9672 16.9941 29.4001 18.7613 29.4001 20.1941V26.5941C29.4001 28.3613 27.9672 29.7941 26.2001 29.7941H19.8001C18.033 29.7941 16.6001 28.027 16.6001 26.5941V20.1941C16.6001 18.427 18.033 16.9941 19.8001 16.9941Z" fill="url(#paint4_linear_437_29901)"/>
<defs>
<linearGradient id="paint0_linear_437_29901" x1="29.4104" y1="45.6632" x2="47.1219" y2="29.3551" gradientUnits="userSpaceOnUse">
<stop offset="0.0729167" stop-color="#F54A2E"/>
<stop offset="0.348958" stop-color="#99D1AD"/>
<stop offset="0.484375" stop-color="#8AE7C1"/>
<stop offset="0.630208" stop-color="#7BDBC6"/>
<stop offset="0.765625" stop-color="#2DB1C3"/>
<stop offset="0.90625" stop-color="#019AC1"/>
</linearGradient>
<linearGradient id="paint1_linear_437_29901" x1="29.4104" y1="16.8635" x2="47.1219" y2="0.555288" gradientUnits="userSpaceOnUse">
<stop offset="0.0729167" stop-color="#F54A2E"/>
<stop offset="0.348958" stop-color="#99D1AD"/>
<stop offset="0.484375" stop-color="#8AE7C1"/>
<stop offset="0.630208" stop-color="#7BDBC6"/>
<stop offset="0.765625" stop-color="#2DB1C3"/>
<stop offset="0.90625" stop-color="#019AC1"/>
</linearGradient>
<linearGradient id="paint2_linear_437_29901" x1="0.610615" y1="16.8635" x2="18.3221" y2="0.555288" gradientUnits="userSpaceOnUse">
<stop offset="0.0729167" stop-color="#F54A2E"/>
<stop offset="0.348958" stop-color="#99D1AD"/>
<stop offset="0.484375" stop-color="#8AE7C1"/>
<stop offset="0.630208" stop-color="#7BDBC6"/>
<stop offset="0.765625" stop-color="#2DB1C3"/>
<stop offset="0.90625" stop-color="#019AC1"/>
</linearGradient>
<linearGradient id="paint3_linear_437_29901" x1="0.610615" y1="45.6632" x2="18.322" y2="29.3551" gradientUnits="userSpaceOnUse">
<stop offset="0.0729167" stop-color="#F54A2E"/>
<stop offset="0.348958" stop-color="#99D1AD"/>
<stop offset="0.484375" stop-color="#8AE7C1"/>
<stop offset="0.630208" stop-color="#7BDBC6"/>
<stop offset="0.765625" stop-color="#2DB1C3"/>
<stop offset="0.90625" stop-color="#019AC1"/>
</linearGradient>
<linearGradient id="paint4_linear_437_29901" x1="16.6085" y1="29.6896" x2="30.7777" y2="16.643" gradientUnits="userSpaceOnUse">
<stop offset="0.0729167" stop-color="#F54A2E"/>
<stop offset="0.348958" stop-color="#99D1AD"/>
<stop offset="0.484375" stop-color="#8AE7C1"/>
<stop offset="0.630208" stop-color="#7BDBC6"/>
<stop offset="0.765625" stop-color="#2DB1C3"/>
<stop offset="0.90625" stop-color="#019AC1"/>
</linearGradient>
</defs>
</svg>
