<svg width="50" height="51" viewBox="0 0 50 51" fill="none" xmlns="http://www.w3.org/2000/svg">
<path d="M45.4004 16.3078C45.1314 15.7196 45.3911 15.0235 45.9793 14.755C46.5675 14.4861 47.2636 14.7457 47.5321 15.3339C48.2603 16.93 48.8224 18.6057 49.1986 20.3396C49.5657 22.0386 49.7593 23.7986 49.7593 25.6003C49.7593 32.4371 46.9882 38.6271 42.5079 43.108C38.0272 47.5887 31.8373 50.3594 25.0002 50.3594C22.071 50.3594 19.2509 49.8447 16.6259 48.9016C14.6966 48.2073 12.8795 47.2841 11.2116 46.1644L11.4406 49.4329C11.4834 50.0797 10.9934 50.6387 10.347 50.6819C9.7002 50.7247 9.14122 50.2347 9.0966 49.5883L8.69125 43.7822C8.64982 43.1661 9.09232 42.63 9.69266 42.5425L15.3223 41.475C15.9598 41.3553 16.5712 41.7761 16.6909 42.4121C16.8105 43.0496 16.3912 43.661 15.7537 43.7807L12.7309 44.3536C14.187 45.3089 15.757 46.0986 17.4159 46.6943C19.7752 47.5422 22.3281 48.0047 24.9991 48.0047C31.1862 48.0047 36.7897 45.4964 40.8427 41.4411C44.8978 37.3861 47.4063 31.7844 47.4063 25.5975C47.4063 23.9585 47.2313 22.3643 46.8995 20.8328C46.5556 19.2461 46.0485 17.7299 45.3988 16.3047L45.4004 16.3078ZM25.0008 22.5671C24.1622 22.5671 23.4047 22.9064 22.8551 23.455C22.3069 24.0032 21.9672 24.7621 21.9672 25.6007C21.9672 26.4393 22.3065 27.1968 22.8551 27.7464C23.4033 28.2946 24.1622 28.6343 25.0008 28.6343C25.8394 28.6343 26.5969 28.295 27.1466 27.7464C27.6948 27.1982 28.0344 26.4393 28.0344 25.6007C28.0344 24.7621 27.6951 24.0046 27.1466 23.455C26.5983 22.9067 25.8394 22.5671 25.0008 22.5671ZM21.1915 21.7928C22.1669 20.8175 23.5126 20.2153 25.0008 20.2153C26.4876 20.2153 27.8347 20.8189 28.8101 21.7928C29.7855 22.7682 30.3876 24.1139 30.3876 25.6021C30.3876 27.0889 29.784 28.436 28.8101 29.4114C27.8347 30.3867 26.489 30.9889 25.0008 30.9889C23.514 30.9889 22.1669 30.3853 21.1915 29.4114C20.2162 28.436 19.614 27.0903 19.614 25.6021C19.614 24.1153 20.2176 22.7682 21.1915 21.7928ZM28.5015 14.3232C28.8501 14.4307 29.1897 14.5535 29.5183 14.6889C29.8547 14.8285 30.1819 14.9821 30.4997 15.1496L32.4011 13.2482C32.8604 12.7889 33.604 12.7889 34.0633 13.2482L37.3519 16.5368C37.8112 16.9961 37.8112 17.7396 37.3519 18.1989L35.4519 20.1004C35.6194 20.4182 35.773 20.7454 35.9126 21.0818C36.0494 21.4104 36.1723 21.75 36.2798 22.1H38.9694C39.6191 22.1 40.1458 22.6268 40.1458 23.2751V27.9261C40.1458 28.5758 39.6191 29.1012 38.9694 29.1012H36.2798C36.1723 29.4497 36.0494 29.7894 35.9141 30.1179C35.7744 30.4544 35.6209 30.7815 35.4534 31.0993L37.3548 33.0008C37.8141 33.4601 37.8141 34.2036 37.3548 34.6629L34.0662 37.9515C33.6069 38.4108 32.8634 38.4108 32.404 37.9515L30.5026 36.0516C30.1847 36.2191 29.8576 36.3726 29.5212 36.5123C29.1926 36.6491 28.853 36.7719 28.503 36.8794V39.5691C28.503 40.2187 27.9762 40.7455 27.3279 40.7455H22.6768C22.0272 40.7455 21.5018 40.2187 21.5018 39.5691V36.8794C21.1532 36.7719 20.8136 36.6491 20.485 36.5137C20.1486 36.3741 19.8215 36.2205 19.5036 36.053L17.6022 37.9544C17.1429 38.4137 16.3994 38.4137 15.94 37.9544L12.6514 34.6658C12.1921 34.2066 12.1921 33.463 12.6514 33.0037L14.5514 31.1022C14.3839 30.7844 14.2303 30.4572 14.0907 30.1208C13.9539 29.7923 13.831 29.4526 13.7235 29.1026H11.0339C10.3843 29.1026 9.85749 28.5758 9.85749 27.9276V23.2765C9.85749 22.6268 10.3843 22.1014 11.0339 22.1014H13.7235C13.831 21.7529 13.9539 21.4132 14.0907 21.0847C14.2303 20.7482 14.3839 20.4211 14.5514 20.1033L12.6514 18.2018C12.1921 17.7426 12.1921 16.999 12.6514 16.5397L15.94 13.2511C16.3993 12.7918 17.1429 12.7918 17.6022 13.2511L19.5036 15.1525C19.8215 14.985 20.1486 14.8314 20.485 14.6918C20.8136 14.555 21.1532 14.4336 21.5018 14.3261V11.6364C21.5018 10.9868 22.0286 10.46 22.6768 10.46H27.3279C27.9776 10.46 28.503 10.9868 28.503 11.6364V14.3261L28.5015 14.3232ZM28.6183 16.8575C28.1437 16.6607 27.6583 16.5029 27.1669 16.3875C26.5922 16.3093 26.1501 15.8175 26.1501 15.2218V12.8085H23.8509V15.2218H23.8462C23.8462 15.7593 23.4744 16.2447 22.9276 16.3646C22.4037 16.4814 21.8862 16.6471 21.3823 16.8561C20.8955 17.0571 20.4238 17.3032 19.9751 17.5843C19.5173 17.9021 18.883 17.8579 18.4744 17.4493L16.768 15.7429L15.1412 17.3696L16.8476 19.0761C17.2287 19.4571 17.3083 20.0636 17.0091 20.5368C16.7158 20.9975 16.4623 21.4815 16.2548 21.9836C16.058 22.4582 15.9001 22.9436 15.7848 23.435C15.7066 24.0097 15.2148 24.4518 14.6191 24.4518H12.2076V26.751H14.6191V26.7557C15.1566 26.7557 15.642 27.1275 15.7634 27.6743C15.8802 28.1982 16.0459 28.7157 16.2548 29.2196C16.4559 29.7064 16.7002 30.1764 16.983 30.6249C17.3009 31.0828 17.2566 31.7171 16.848 32.1257L15.1416 33.8321L16.7684 35.4589L18.4748 33.7524C18.8559 33.3714 19.4623 33.2917 19.9356 33.591C20.3963 33.8842 20.8802 34.1364 21.3823 34.3453C21.857 34.5421 22.3423 34.6999 22.8337 34.8153C23.4084 34.8935 23.8505 35.3853 23.8505 35.981V38.3943H26.1498V35.9828H26.1544C26.1544 35.4453 26.5262 34.9599 27.073 34.8385C27.5969 34.7217 28.1145 34.556 28.6183 34.3471C29.1051 34.146 29.5751 33.9017 30.0237 33.6189C30.4815 33.301 31.1158 33.3453 31.5244 33.7539L33.2308 35.4603L34.8576 33.8335L33.1512 32.1271C32.7701 31.746 32.6905 31.1396 32.9897 30.6663C33.283 30.2056 33.5351 29.7217 33.744 29.2196C33.9408 28.7449 34.0987 28.2596 34.214 27.7681C34.2922 27.1935 34.784 26.7514 35.3797 26.7514H37.793V24.4521H35.3816V24.4475C34.8441 24.4475 34.3587 24.0757 34.2373 23.5289C34.1205 23.005 33.9548 22.4874 33.7458 21.9836C33.5448 21.4968 33.3005 21.0268 33.0176 20.5782C32.6997 20.1204 32.744 19.4861 33.1526 19.0775L34.859 17.3711L33.2323 15.7443L31.5258 17.4507C31.1448 17.8318 30.5383 17.9114 30.0651 17.6122C29.6044 17.3189 29.1204 17.0668 28.6183 16.8579V16.8575ZM38.5593 1.76813C38.5165 1.12134 39.0065 0.562366 39.6529 0.519212C40.2997 0.476355 40.8587 0.966352 40.9033 1.61279L41.3086 7.41887C41.3501 8.03494 40.9076 8.57105 40.3072 8.65855L34.6776 9.72607C34.0401 9.84571 33.4287 9.425 33.309 8.78893C33.1894 8.15142 33.6087 7.54001 34.2462 7.42033L37.269 6.84748C35.8129 5.89214 34.2429 5.10247 32.584 4.50672C30.2247 3.65887 27.6718 3.19637 25.0008 3.19637C18.8137 3.19637 13.2102 5.70462 9.15715 9.75994C5.10211 13.815 2.59358 19.4166 2.59358 25.6036C2.59358 27.2425 2.76859 28.8368 3.10037 30.3682C3.4443 31.955 3.95144 33.4711 4.60108 34.8964C4.87001 35.4846 4.61036 36.1807 4.02215 36.4492C3.43394 36.7181 2.73786 36.4585 2.46933 35.8703C1.74112 34.2742 1.17754 32.5985 0.802862 30.8646C0.434295 29.1656 0.240723 27.4056 0.240723 25.6039C0.240723 18.7671 3.01183 12.5771 7.49211 8.09621C11.9728 3.61548 18.1627 0.844826 24.9998 0.844826C27.929 0.844826 30.7491 1.35947 33.3741 2.30265C35.3034 2.99694 37.1205 3.92012 38.7884 5.03984L38.5595 1.77127L38.5593 1.76813Z" fill="url(#paint0_linear_437_29753)"/>
<defs>
<linearGradient id="paint0_linear_437_29753" x1="0.273272" y1="50.2747" x2="55.7432" y2="-0.139333" gradientUnits="userSpaceOnUse">
<stop offset="0.0729167" stop-color="#F54A2E"/>
<stop offset="0.348958" stop-color="#99D1AD"/>
<stop offset="0.484375" stop-color="#8AE7C1"/>
<stop offset="0.630208" stop-color="#7BDBC6"/>
<stop offset="0.765625" stop-color="#2DB1C3"/>
<stop offset="0.90625" stop-color="#019AC1"/>
</linearGradient>
</defs>
</svg>
