<svg width="375" height="484" viewBox="0 0 375 484" fill="none" xmlns="http://www.w3.org/2000/svg" xmlns:xlink="http://www.w3.org/1999/xlink">
<g opacity="0.5">
<mask id="mask0_437_29410" style="mask-type:alpha" maskUnits="userSpaceOnUse" x="-118" y="12" width="620" height="462">
<path d="M501.899 288.788L-19.6741 12.3577L-117.164 160.05C-117.164 160.05 -83.3669 214.182 -26.6001 216.578C60.335 220.249 90.6405 301.144 182.985 308.527C262.605 314.892 421.465 473.779 421.465 473.779L501.899 288.788Z" fill="white"/>
</mask>
<g mask="url(#mask0_437_29410)">
<g style="mix-blend-mode:color-burn">
<rect width="795.749" height="262.912" transform="matrix(0.86525 0.478568 0.463917 -0.877095 -246.327 208.598)" fill="url(#pattern0)"/>
<path d="M-140.724 50.0419C-140.724 50.0419 -58.7947 46.5371 7.94243 91.2881C74.6795 136.039 130.811 188.964 216.291 204.155C301.772 219.345 361.589 253.695 411.742 296.118C461.895 338.541 506.34 348.024 506.34 348.024L451.747 532.449L-184.403 231.405L-140.724 50.0419Z" fill="#595959"/>
</g>
<path d="M-140.181 50.3149C-140.181 50.3149 -58.1945 46.6427 8.44408 91.3229C75.0826 136.003 131.084 188.89 216.568 203.932C302.051 218.973 361.797 253.252 411.849 295.634C461.901 338.016 506.343 347.424 506.343 347.424L451.154 532.212L-184.44 232.014L-140.181 50.3149Z" fill="#2B2D42"/>
<g style="mix-blend-mode:color-burn" opacity="0.5">
<rect width="766.246" height="243.507" transform="matrix(0.86418 0.479433 0.455392 -0.88274 -255.674 186.22)" fill="url(#pattern1)"/>
<path d="M390.376 527.663L488.082 338.43C488.082 338.43 408.39 331.026 337.18 283.798C265.969 236.569 281.656 229.586 130.419 186.25C-20.8183 142.914 -26.1105 61.6762 -140.562 19.4234L-226.672 186.198L390.376 527.663Z" fill="#595959"/>
</g>
<path d="M389.746 527.534L488.315 338.684C488.315 338.684 408.534 331.208 337.399 283.977C266.265 236.745 282.001 229.788 130.707 186.36C-20.5865 142.932 -25.5775 61.8102 -140.036 19.5021L-226.906 185.94L389.746 527.534Z" fill="#053865"/>
<g style="mix-blend-mode:color-burn" opacity="0.3">
<rect width="746.556" height="235.912" transform="matrix(0.865695 0.477714 0.464473 -0.876772 -223.29 230.058)" fill="url(#pattern2)"/>
<path d="M-168.274 236.702L-96.5993 73.3787C-96.5993 73.3787 -78.7125 69.9488 -44.8811 90.8757C-11.0498 111.803 9.02165 199.292 85.7173 220.356C162.413 241.42 197.056 202.37 275.028 267.334C353.001 332.299 406.843 386.911 464.318 402.97L406.063 535.604L-168.274 236.702Z" fill="#595959"/>
</g>
<path d="M-168.226 237.034L-96.1397 73.4911C-96.1397 73.4911 -78.2385 70.0369 -44.4447 90.9403C-10.6509 111.844 9.22073 199.381 85.8937 220.37C162.567 241.359 197.314 202.235 275.16 267.159C353.007 332.083 406.739 386.675 464.196 402.678L405.607 535.49L-168.226 237.034Z" fill="#E34126"/>
<g style="mix-blend-mode:color-burn" opacity="0.5">
<rect width="796.955" height="222.563" transform="matrix(0.866867 0.475537 0.46616 -0.87578 -232.228 231.594)" fill="url(#pattern3)"/>
<path d="M-108.413 121.165C-83.0455 117.237 -37.7097 128.065 15.9424 185.578C69.5945 243.092 109.212 245.806 141.221 239.932C173.231 234.058 207.166 245.35 299.158 337.068C391.15 428.786 414.491 420.412 453.197 441.496C491.904 462.579 419.709 551.927 419.709 551.927L-166.795 232.459L-108.413 121.165Z" fill="#595959"/>
</g>
<path d="M-108.23 121.145C-82.8728 117.247 -37.5608 128.106 16.0499 185.601C69.6606 243.097 109.26 245.846 141.256 240.011C173.252 234.176 207.169 245.487 299.092 337.183C391.016 428.879 414.348 420.538 453.031 441.634C491.713 462.729 419.525 551.896 419.525 551.896L-166.619 232.245L-108.23 121.145Z" fill="url(#paint0_linear_437_29410)"/>
</g>
</g>
<defs>
<pattern id="pattern0" patternContentUnits="objectBoundingBox" width="1" height="1">
<use xlink:href="#image0_437_29410" transform="scale(0.00188324 0.00316456)"/>
</pattern>
<pattern id="pattern1" patternContentUnits="objectBoundingBox" width="1" height="1">
<use xlink:href="#image1_437_29410" transform="scale(0.00209205 0.00364964)"/>
</pattern>
<pattern id="pattern2" patternContentUnits="objectBoundingBox" width="1" height="1">
<use xlink:href="#image2_437_29410" transform="scale(0.00200401 0.00352113)"/>
</pattern>
<pattern id="pattern3" patternContentUnits="objectBoundingBox" width="1" height="1">
<use xlink:href="#image3_437_29410" transform="scale(0.00186916 0.00371747)"/>
</pattern>
<linearGradient id="paint0_linear_437_29410" x1="-167.48" y1="231.775" x2="35.7372" y2="3.72803" gradientUnits="userSpaceOnUse">
<stop stop-color="#35B1D0"/>
<stop offset="0.432292" stop-color="#40C6C9"/>
<stop offset="0.671875" stop-color="#32CAA7"/>
<stop offset="1" stop-color="#26CD89"/>
</linearGradient>
</defs>
</svg>
