<svg width="64" height="65" viewBox="0 0 64 65" fill="none" xmlns="http://www.w3.org/2000/svg">
<path d="M48.2909 29.9044C48.0268 29.6403 47.6313 29.561 47.288 29.7047C46.945 29.8473 46.7204 30.1832 46.7204 30.5549V32.3949H36.6004V17.6749H38.4404C38.8121 17.6749 39.148 17.4503 39.2905 17.1073C39.4331 16.7632 39.3542 16.3676 39.0909 16.1044L32.6509 9.66437C32.2912 9.30458 31.7096 9.30458 31.3502 9.66437L24.9102 16.1044C24.647 16.3676 24.5681 16.7631 24.7106 17.1073C24.8527 17.4503 25.1887 17.6749 25.5604 17.6749H27.4004V25.0349H17.2804V23.1949C17.2804 22.8232 17.0557 22.4873 16.7128 22.3448C16.3678 22.2014 15.9731 22.2811 15.7098 22.5444L9.26984 28.9844C8.91005 29.3441 8.91005 29.9257 9.26984 30.2851L15.7098 36.7251C15.7891 36.8043 15.8819 36.8602 15.9805 36.9054C16.0109 36.9193 16.0413 36.9275 16.0725 36.9386C16.146 36.9633 16.2216 36.9781 16.2988 36.983C16.3197 36.9838 16.339 36.9949 16.3604 36.9949C16.3723 36.9949 16.3842 36.9883 16.3961 36.9875C16.5029 36.9838 16.6097 36.9674 16.7128 36.9251C17.0557 36.7826 17.2804 36.4466 17.2804 36.0749V34.2349H27.4004V54.4749C27.4004 54.9825 27.8127 55.3949 28.3204 55.3949H35.6804C36.188 55.3949 36.6004 54.9825 36.6004 54.4749V41.5949H46.7204V43.4349C46.7204 43.8066 46.945 44.1426 47.288 44.2851C47.6313 44.4268 48.0268 44.3487 48.2909 44.0855L54.7309 37.6455C55.0907 37.2857 55.0907 36.7041 54.7309 36.3448L48.2909 29.9044ZM32.0001 11.6158L36.2194 15.8351H35.6801C35.1725 15.8351 34.7601 16.2475 34.7601 16.7551V28.1221C33.4224 26.4669 31.4637 25.3362 29.2401 25.0889V16.7547C29.2401 16.247 28.8278 15.8347 28.3201 15.8347H27.7809L32.0001 11.6158ZM29.2401 33.3152C29.2401 32.8075 28.8278 32.3952 28.3201 32.3952H16.3601C15.8525 32.3952 15.4401 32.8075 15.4401 33.3152V33.8544L11.2209 29.6352L15.4401 25.4159V25.9552C15.4401 26.4628 15.8525 26.8752 16.3601 26.8752H28.3201C31.5808 26.8752 34.2755 29.3124 34.6965 32.4596C32.4995 32.7208 30.5647 33.8433 29.2401 35.4829V33.3152ZM48.5601 41.2144V40.6752C48.5601 40.1675 48.1477 39.7552 47.6401 39.7552H35.6801C35.1725 39.7552 34.7601 40.1675 34.7601 40.6752V53.5552H29.2401V40.6752C29.2401 37.1242 32.1291 34.2352 35.6801 34.2352H47.6401C48.1477 34.2352 48.5601 33.8228 48.5601 33.3152V32.7759L52.7794 36.9952L48.5601 41.2144Z" fill="url(#paint0_linear_437_29816)"/>
<defs>
<linearGradient id="paint0_linear_437_29816" x1="9.03024" y1="55.0192" x2="59.9511" y2="8.13229" gradientUnits="userSpaceOnUse">
<stop offset="0.0729167" stop-color="#F54A2E"/>
<stop offset="0.348958" stop-color="#99D1AD"/>
<stop offset="0.484375" stop-color="#8AE7C1"/>
<stop offset="0.630208" stop-color="#7BDBC6"/>
<stop offset="0.765625" stop-color="#2DB1C3"/>
<stop offset="0.90625" stop-color="#019AC1"/>
</linearGradient>
</defs>
</svg>
