<svg width="51" height="51" viewBox="0 0 51 51" fill="none" xmlns="http://www.w3.org/2000/svg">
<path d="M6.56852 1.0781C5.08016 1.04304 3.75572 1.4127 2.79727 2.3706C1.51921 3.64866 1.29294 5.58092 1.66253 7.68023C2.0327 9.77953 2.99779 12.1908 4.44603 14.8573C6.18964 18.0681 8.65453 21.643 11.6798 25.325C8.65401 29.007 6.18766 32.5799 4.44405 35.7908C2.99634 38.4577 2.03076 40.8705 1.66055 42.9703C1.29038 45.0696 1.51723 47.002 2.79529 48.28C4.07335 49.558 6.00562 49.7843 8.10492 49.4147C10.2042 49.0445 12.6175 48.0794 15.2845 46.6312C18.4948 44.8881 22.0686 42.4227 25.7502 39.3974C29.4323 42.4222 33.0077 44.8855 36.218 46.6286C38.8844 48.0763 41.2957 49.0419 43.395 49.4121C45.4943 49.7822 47.4267 49.5554 48.7047 48.2773C49.9827 46.9993 50.207 45.0695 49.8368 42.9702C49.4666 40.8709 48.5035 38.4576 47.056 35.7906C45.3123 32.5798 42.848 29.0044 39.8222 25.3229C42.8469 21.6413 45.3123 18.0675 47.056 14.8571C48.5042 12.1902 49.4692 9.7794 49.8395 7.6801C50.2096 5.58079 49.9828 3.64845 48.7047 2.37047C47.4267 1.09241 45.4944 0.865609 43.3951 1.23573C41.2958 1.60589 38.8845 2.57099 36.218 4.01922C33.0077 5.76231 29.4339 8.22773 25.7523 11.253C22.0706 8.22773 18.4974 5.76283 15.2865 4.01922C12.6201 2.57151 10.2041 1.60791 8.10484 1.23836C7.58 1.14608 7.06497 1.08886 6.56897 1.07803L6.56852 1.0781ZM6.54687 3.38567C6.89281 3.39856 7.27896 3.43413 7.70636 3.5094C9.41645 3.81101 11.656 4.67558 14.1822 6.04702C17.1307 7.64783 20.4781 9.94919 23.9529 12.7751C22.1016 14.3753 20.2353 16.0957 18.3793 17.9518C16.5234 19.8078 14.8034 21.6756 13.2026 23.5275C10.3763 20.0521 8.07538 16.7056 6.47417 13.7567C5.10275 11.2305 4.24025 8.98889 3.9392 7.2788C3.63759 5.56872 3.90002 4.53662 4.43104 4.00354C4.83059 3.60399 5.5101 3.35704 6.54684 3.38539L6.54687 3.38567ZM44.9562 3.38567C45.9925 3.35525 46.6725 3.60374 47.072 4.00382C47.6051 4.53691 47.8675 5.56899 47.5659 7.27908C47.2643 8.98917 46.3977 11.2308 45.0263 13.757C43.4255 16.7055 41.1277 20.0519 38.3025 23.5258C36.7022 21.6734 34.9824 19.8086 33.1258 17.9526C31.2693 16.0961 29.4025 14.3742 27.5501 12.7739C31.0239 9.94921 34.3704 7.65088 37.3189 6.05007C39.8451 4.67864 42.0888 3.81152 43.7989 3.51047C44.2263 3.4352 44.6104 3.39602 44.9558 3.38674L44.9562 3.38567ZM25.7502 14.2777C27.6531 15.9074 29.5782 17.6727 31.4904 19.5849C33.4025 21.497 35.1683 23.4205 36.7975 25.323C35.1678 27.226 33.4025 29.151 31.4904 31.0632C29.5777 32.9759 27.6531 34.7406 25.7502 36.3703C23.8478 34.7411 21.9222 32.9775 20.0101 31.0653C18.0979 29.1532 16.3346 27.2275 14.7051 25.3251C16.3348 23.4222 18.1 21.4971 20.0122 19.585C21.9243 17.6728 23.8478 15.9071 25.7504 14.2779L25.7502 14.2777ZM13.2027 27.1233C14.8025 28.9751 16.5209 30.843 18.3768 32.699C20.2327 34.5549 22.1001 36.2754 23.9525 37.8757C20.4782 40.7009 17.1297 43.0008 14.1818 44.6016C11.6555 45.973 9.41602 46.8375 7.70593 47.1392C5.99584 47.4408 4.96163 47.1784 4.42856 46.6474C3.89547 46.1143 3.6377 45.0801 3.9393 43.37C4.24091 41.6599 5.10497 39.4203 6.47692 36.8942C8.07825 33.9452 10.3766 30.5983 13.2028 27.1235L13.2027 27.1233ZM38.303 27.1233C41.1277 30.597 43.426 33.9436 45.0268 36.892C46.3983 39.4183 47.2654 41.6599 47.5664 43.37C47.868 45.0801 47.6056 46.1122 47.0725 46.6447C46.5394 47.1778 45.5099 47.4402 43.7998 47.1386C42.0897 46.837 39.8455 45.9729 37.3197 44.601C34.3713 43.0002 31.0249 40.6997 27.551 37.8751C29.4033 36.2743 31.2702 34.5528 33.1267 32.6964C34.9831 30.8399 36.7026 28.9751 38.3034 27.1232L38.303 27.1233Z" fill="url(#paint0_linear_437_30283)" stroke="url(#paint1_linear_437_30283)" stroke-width="2" stroke-linecap="round" stroke-linejoin="round"/>
<defs>
<linearGradient id="paint0_linear_437_30283" x1="1.53188" y1="49.1789" x2="55.2195" y2="-0.255365" gradientUnits="userSpaceOnUse">
<stop offset="0.0729167" stop-color="#F54A2E"/>
<stop offset="0.348958" stop-color="#99D1AD"/>
<stop offset="0.484375" stop-color="#8AE7C1"/>
<stop offset="0.630208" stop-color="#7BDBC6"/>
<stop offset="0.765625" stop-color="#2DB1C3"/>
<stop offset="0.90625" stop-color="#019AC1"/>
</linearGradient>
<linearGradient id="paint1_linear_437_30283" x1="1.53188" y1="49.1789" x2="55.2195" y2="-0.255365" gradientUnits="userSpaceOnUse">
<stop offset="0.0729167" stop-color="#F54A2E"/>
<stop offset="0.348958" stop-color="#99D1AD"/>
<stop offset="0.484375" stop-color="#8AE7C1"/>
<stop offset="0.630208" stop-color="#7BDBC6"/>
<stop offset="0.765625" stop-color="#2DB1C3"/>
<stop offset="0.90625" stop-color="#019AC1"/>
</linearGradient>
</defs>
</svg>
