<svg width="198" height="32" viewBox="0 0 198 32" fill="none" xmlns="http://www.w3.org/2000/svg">
<g clip-path="url(#clip0_505_4267)">
<path d="M24.8 12.6667C24.0667 8.93333 22.2667 5.8 19.3333 3.33333C16.6667 1.13333 13.5333 0.0666667 10.1333 0C6.86667 0 3.66667 0 0.466667 0C0.333333 0 0.2 0 0.133333 0V7C0.266667 7 0.4 7 0.533333 7C1.86667 7 3.13333 6.93333 4.46667 6.93333C6.13333 6.93333 7.86667 6.93333 9.6 6.93333C10.3333 6.93333 11.1333 7 11.8 7.13333C14.5333 7.73333 16.4667 9.4 17.4667 12C18.3333 14.2 18.4 16.4 17.8 18.6667C17.1333 21.3333 15.6 23.2667 13 24.2667C11.8667 24.7333 10.6667 24.8667 9.4 24.8667C7.53333 24.8667 5.66667 24.8667 3.8 24.8C2.6 24.8 1.46667 24.8 0.266667 24.8C0.2 24.8 0.133333 24.8 0.0666667 24.8V32C0.2 32 0.266667 32 0.4 32C3.4 32 6.46667 32 9.46667 32C10.6 32 11.7333 31.8667 12.8 31.6667C17.0667 30.8 20.4 28.4667 22.6667 24.7333C25 20.9333 25.6 16.9333 24.8 12.6667ZM2.46667 20.2C3.8 20.4 5.13333 20.4 6.46667 20.2667C7.8 20.1333 8.8 19.2 9 18C9.13333 17.2667 9.13333 16.4667 9.2 15.9333C9.13333 15.1333 9.13333 14.5333 9.06667 13.9333C8.93333 12.4667 7.8 11.2667 6.33333 11.2C5.13333 11.1333 3.93333 11.1333 2.73333 11.2C1.2 11.2667 0.0666667 12.4667 0 14C0 15.1333 0 16.2667 0 17.4667C0.0666667 18.8667 1.06667 19.9333 2.46667 20.2Z" fill="#D1462F"/>
<path d="M51.2004 10.3995C50.4671 9.66621 49.6671 9.06621 48.6671 8.66621C47.7337 8.26621 46.6671 7.99954 45.6004 7.99954H39.4004V23.9995H45.6004C46.7337 23.9995 47.7337 23.7995 48.6671 23.3329C49.6004 22.8662 50.4671 22.3329 51.2004 21.5329C51.9337 20.7995 52.4671 19.9329 52.8671 18.9329C53.2671 17.9329 53.4671 16.9329 53.4671 15.9329C53.4671 14.8662 53.2671 13.8662 52.8671 12.8662C52.4671 11.9329 51.9337 11.1329 51.2004 10.3995ZM48.8671 17.7995C48.6671 18.3329 48.3337 18.7995 48.0004 19.1995C47.6004 19.5995 47.1337 19.9329 46.5337 20.1329C45.9337 20.3329 45.3337 20.4662 44.6004 20.4662H43.6671V11.5329H44.6004C45.3337 11.5329 45.9337 11.6662 46.5337 11.8662C47.1337 12.0662 47.6004 12.3995 48.0004 12.7995C48.4004 13.1995 48.6671 13.6662 48.9337 14.1995C49.1337 14.7329 49.2671 15.3329 49.2671 15.9995C49.1337 16.6662 49.0671 17.2662 48.8671 17.7995ZM69.0004 15.8662C69.6004 15.1329 69.8671 14.1329 69.8671 12.8662C69.8671 12.1995 69.7337 11.5329 69.5337 10.9329C69.3337 10.3329 69.0004 9.79954 68.5337 9.33288C68.1337 8.86621 67.5337 8.53288 66.8671 8.26621C66.2004 7.99954 65.4004 7.86621 64.5337 7.86621H58.0671V23.9995H62.2671V17.7995L66.2671 23.9995H71.4671L66.4004 17.3995C67.5337 17.1329 68.4004 16.6662 69.0004 15.8662ZM64.9337 14.6662C64.4671 14.9995 63.8671 15.1995 63.0671 15.1995H62.2671V11.1995H63.0671C63.8671 11.1995 64.5337 11.3995 64.9337 11.7329C65.3337 12.0662 65.6004 12.5329 65.6004 13.1995C65.6004 13.7995 65.4004 14.2662 64.9337 14.6662ZM75.0671 23.9995H84.2004V20.4662H79.2671V17.6662H83.9337V14.1329H79.2671V11.4662H84.2004V7.99954H75.0671V23.9995ZM93.6671 7.93288L87.6004 23.9995H92.0671L93.0004 21.1995H98.9337L99.8671 23.9995H104.334L98.2004 7.93288H93.6671ZM94.1337 18.0662L96.0004 12.7329L97.8671 18.0662H94.1337ZM120.667 7.99954L117.467 16.5329L114.267 7.99954H110.134L107.4 23.9995H111.534L112.934 14.7329L116.534 23.9995H118.2L122 14.7329L123.334 23.9995H127.467L124.8 7.99954H120.667ZM130.534 11.5329H133.934V23.9995H138.134V11.5329H141.534V7.99954H130.534V11.5329ZM145.334 23.9995H154.467V20.4662H149.534V17.6662H154.2V14.1329H149.534V11.4662H154.467V7.99954H145.334V23.9995ZM163.934 7.93288L157.867 23.9995H162.334L163.267 21.1995H169.2L170.134 23.9995H174.6L168.467 7.93288H163.934ZM164.4 18.0662L166.267 12.7329L168.134 18.0662H164.4ZM195 7.99954H190.867L187.667 16.5329L184.534 7.99954H180.4L177.667 23.9995H181.8L183.2 14.7329L186.8 23.9995H188.467L192.267 14.7329L193.667 23.9995H197.8L195 7.99954Z" fill="#FAF8F5"/>
</g>
<defs>
<clipPath id="clip0_505_4267">
<rect width="198" height="32" fill="white"/>
</clipPath>
</defs>
</svg>
